<svg id="Layer_1" data-name="Layer 1" xmlns="http://www.w3.org/2000/svg" viewBox="0 0 308.44 77.61"><defs><style>.cls-1{fill:#fff;}</style></defs><path class="cls-1" d="M142.94,20.2l-7.88,29H135l-8.15-29h-5.55l-8,28.93h-.11l-8-28.87H99.27l10.84,37.27h5.44l8.2-29.24h.1l8.41,29.24h5.66L148.39,20.2Zm17.82,0L146.48,57.42h5.82l3.28-8.88h16.65l3.34,8.88h6L167.16,20.2Zm-3.44,23.52,6.45-17.55h.11l6.56,17.55ZM278.2,20.2v4.86h12.32V57.42h5.6V25.06h12.32V20.2ZM248.11,57.42h25.54V52.55H253.71V40.61h18.35V35.85H253.71V25.06h19.94V20.2H248.11ZM223.26,20.2h-5.61V57.42H242V52.55H223.26Zm-30.46,0h-5.6V57.42h24.32V52.55H192.8Zm-154,38A19.41,19.41,0,1,1,57.92,35.57H77.47a38.81,38.81,0,1,0,0,6.47H57.92A19.39,19.39,0,0,1,38.81,58.21Z"/></svg>