<svg id="Layer_1" data-name="Layer 1" xmlns="http://www.w3.org/2000/svg" viewBox="0 0 528.15 53.64"><defs><style>.cls-1{fill:#0052ff;}</style></defs><title>Coinbase_Wordmark_SubBrands_ALL</title><path class="cls-1" d="M164.45,15a15,15,0,0,0-11.74,5.4V0h-8.64V52.92h8.5V48a15,15,0,0,0,11.88,5.62c10.37,0,18.21-8.21,18.21-19.3S174.67,15,164.45,15Zm-1.3,30.67c-6.19,0-10.73-4.83-10.73-11.31S157,23,163.22,23s10.66,4.82,10.66,11.37S169.34,45.65,163.15,45.65Zm83.31-14.91-6.34-.93c-3-.43-5.18-1.44-5.18-3.82,0-2.59,2.8-3.89,6.62-3.89,4.18,0,6.84,1.8,7.42,4.76h8.35c-.94-7.49-6.7-11.88-15.55-11.88-9.15,0-15.2,4.68-15.2,11.3,0,6.34,4,10,12,11.16l6.33.94c3.1.43,4.83,1.65,4.83,4,0,2.95-3,4.17-7.2,4.17-5.12,0-8-2.09-8.43-5.25h-8.49c.79,7.27,6.48,12.38,16.84,12.38,9.44,0,15.7-4.32,15.7-11.74C258.12,35.28,253.58,31.82,246.46,30.74Zm-27.65-2.3c0-8.06-4.9-13.46-15.27-13.46-9.79,0-15.26,5-16.34,12.6h8.57c.43-3,2.73-5.4,7.63-5.4,4.39,0,6.55,1.94,6.55,4.32,0,3.09-4,3.88-8.85,4.39-6.63.72-14.84,3-14.84,11.66,0,6.7,5,11,12.89,11,6.19,0,10.08-2.59,12-6.7.28,3.67,3,6.05,6.84,6.05h5v-7.7h-4.25Zm-8.5,9.36c0,5-4.32,8.64-9.57,8.64-3.24,0-6-1.37-6-4.25,0-3.67,4.39-4.68,8.42-5.11s6-1.22,7.13-2.88ZM281.09,15c-11.09,0-19.23,8.35-19.23,19.36,0,11.6,8.72,19.3,19.37,19.3,9,0,16.06-5.33,17.86-12.89h-9c-1.3,3.31-4.47,5.19-8.71,5.19-5.55,0-9.72-3.46-10.66-9.51H299.3V33.12C299.3,22.46,291.53,15,281.09,15Zm-9.87,15.26c1.37-5.18,5.26-7.7,9.72-7.7,4.9,0,8.64,2.8,9.51,7.7ZM19.3,23a9.84,9.84,0,0,1,9.5,7h9.14c-1.65-8.93-9-15-18.57-15A19,19,0,0,0,0,34.34c0,11.09,8.28,19.3,19.37,19.3,9.36,0,16.85-6,18.5-15H28.8a9.75,9.75,0,0,1-9.43,7.06c-6.27,0-10.66-4.83-10.66-11.31S13,23,19.3,23Zm41.11-8A19,19,0,0,0,41,34.34c0,11.09,8.28,19.3,19.37,19.3A19,19,0,0,0,79.92,34.27C79.92,23.33,71.64,15,60.41,15Zm.07,30.67c-6.19,0-10.73-4.83-10.73-11.31S54.22,23,60.41,23s10.8,4.89,10.8,11.37S66.67,45.65,60.48,45.65ZM123.41,15c-5.62,0-9.29,2.3-11.45,5.54V15.7h-8.57V52.92H112V32.69C112,27,115.63,23,121,23c5,0,8.06,3.53,8.06,8.64V52.92h8.64V31C137.66,21.6,132.84,15,123.41,15ZM92,.36a5.36,5.36,0,0,0-5.55,5.47,5.55,5.55,0,0,0,11.09,0A5.35,5.35,0,0,0,92,.36Zm-9.72,23h5.4V52.92h8.64V15.7h-14Zm298.17-7.7L366.2,52.92H372L375.29,44H392l3.33,8.88h6L386.87,15.7ZM377,39.23l6.45-17.56h.1l6.56,17.56ZM362.66,15.7l-7.88,29h-.11l-8.14-29H341l-8,28.93h-.1l-8-28.87H319L329.82,53h5.45l8.19-29.24h.11L352,53h5.66L368.1,15.7Zm135.25,0v4.86h12.32V52.92h5.6V20.56h12.32V15.7ZM467.82,52.92h25.54V48.06H473.43v-12h18.35V31.35H473.43V20.56h19.93V15.7H467.82ZM443,15.7h-5.6V52.92h24.32V48.06H443Zm-30.45,0h-5.61V52.92h24.32V48.06H412.52Z"/></svg>