<?xml version="1.0" encoding="UTF-8"?>
<svg width="600px" height="136px" viewBox="0 0 600 136" version="1.1" xmlns="http://www.w3.org/2000/svg" xmlns:xlink="http://www.w3.org/1999/xlink">
    <!-- Generator: Sketch 52.6 (67491) - http://www.bohemiancoding.com/sketch -->
    <title>AirSwap-Logo</title>
    <desc>Created with Sketch.</desc>
    <g id="AirSwap-Logo" stroke="none" stroke-width="1" fill="none" fill-rule="evenodd">
        <polygon id="Path" fill="#2B71FF" points="246.644295 38.2814815 234.563758 38.2814815 234.563758 104.77037 246.644295 104.77037"></polygon>
        <path d="M353.73159,66.1298793 C366.185229,69.0555512 373.373915,73.191846 375.09515,81.3635502 C375.390797,82.7224744 375.526471,84.1106553 375.500146,85.499845 C375.500146,97.9087292 366.792724,105.777778 352.61785,105.777778 C341.802421,105.68799 331.366677,101.79382 323.154362,94.7812869 L330.343048,86.4078121 C336.822991,91.9565002 344.517922,95.4874835 352.921597,95.4874835 C361.325273,95.4874835 363.654002,91.7547297 363.654002,86.6095826 C363.654002,81.4644355 360.920276,79.2449602 348.365388,76.4201736 C333.988016,73.0909607 325.68559,68.3493545 325.68559,56.0413555 C325.68559,43.7333565 334.291763,37.2767013 347.656644,37.2767013 C356.967511,37.1727895 366.048543,40.1539483 373.475164,45.7510613 L367.096471,54.528077 C361.021525,50.0891265 354.136587,47.0625694 347.960392,47.0625694 C341.784197,47.0625694 337.531734,50.5935527 337.531734,55.0325032 C337.531734,59.4714536 340.872955,63.1033222 353.73159,66.1298793 Z" id="Path" fill="#2B71FF"></path>
        <polygon id="Path" fill="#2B71FF" points="466.824451 38.2814815 450.632589 87.2892491 434.038445 38.2814815 424.081958 38.2814815 407.487814 87.2892491 391.295952 38.2814815 378.52349 38.2814815 402.057003 104.77037 412.315202 104.77037 428.909346 57.3793538 445.50349 104.77037 455.661117 104.77037 479.194631 38.2814815"></polygon>
        <path d="M573.329523,48.8914106 L556.495686,48.8914106 L556.495686,72.2332545 L573.329523,72.2332545 C582.354893,72.2332545 587.93237,68.7976584 587.93237,60.2086682 C587.93237,51.619678 582.253485,48.8914106 573.329523,48.8914106 Z M572.923888,82.6410897 L556.495686,82.6410897 L556.495686,104.77037 L544.630872,104.77037 L544.630872,38.2814815 L574.343609,38.2814815 C590.061951,38.2814815 600,46.26419 600,59.7034335 C600,74.6583812 588.946456,82.6410897 572.923888,82.6410897 Z" id="Shape" fill="#2B71FF" fill-rule="nonzero"></path>
        <path d="M290.791066,48.8914106 L273.645799,48.8914106 L273.645799,72.1322076 L290.891921,72.1322076 C299.3637,72.1322076 304.809843,67.1809074 304.809843,60.4107621 C304.809843,53.6406169 299.565409,48.8914106 290.791066,48.8914106 Z M303.095317,104.77037 L288.370558,82.4389958 L273.645799,82.4389958 L273.645799,104.77037 L261.744966,104.77037 L261.744966,38.2814815 L291.799611,38.2814815 C307.230352,38.2814815 316.81153,47.4767533 316.81153,60.4107621 C316.81153,71.323832 310.155133,77.8918834 300.674808,80.5191039 L317.114094,104.77037 L303.095317,104.77037 Z" id="Shape" fill="#2B71FF" fill-rule="nonzero"></path>
        <path d="M190.27148,52.1249128 L199.892678,77.3866487 C192.58158,77.374523 185.356566,78.96096 178.726041,82.0348081 L190.27148,52.1249128 Z M156.040268,104.77037 L168.497188,104.77037 C168.497188,104.77037 177.510732,85.672498 203.943709,87.7944838 L211.033013,104.77037 L223.489933,104.77037 L195.942923,38.2814815 L184.296209,38.2814815 L156.040268,104.77037 Z" id="Shape" fill="#2B71FF" fill-rule="nonzero"></path>
        <path d="M514.932131,82.0348081 C508.309525,78.9670229 501.096355,77.3805858 493.797229,77.3866487 L503.404003,52.1249128 L514.932131,82.0348081 Z M509.370315,38.2814815 L497.741062,38.2814815 L470.134228,104.77037 L482.572472,104.77037 L489.752272,87.7944838 C516.044495,85.672498 525.044525,104.77037 525.044525,104.77037 L537.583893,104.77037 L509.370315,38.2814815 Z" id="Shape" fill="#2B71FF" fill-rule="nonzero"></path>
        <path d="M102.431022,101.748148 L67.8472746,136 L50.7084265,119.025631 C69.1908379,117.908152 87.0407441,111.945905 102.431022,101.748148 Z" id="Path" fill="#2B71FF"></path>
        <path d="M134.786318,66.9489346 L130.539487,62.6949932 L67.9492916,0 L5.35909591,62.6949932 L0,68.0630621 L1.92118533,69.7848955 C4.14571571,71.6080133 6.37024609,73.3298467 8.69589148,74.9503958 C25.6832144,86.8644702 45.8526269,93.3902188 66.5882834,93.6788792 C87.32394,93.9675395 107.66727,88.0069573 124.978161,76.5709449 C127.404922,74.9503958 129.831682,73.1272781 132.157328,71.3041603 C134.482973,69.4810426 134.685203,69.1771896 135.898583,68.0630621 L134.786318,66.9489346 Z M84.4310394,82.648004 C65.7581292,71.1654008 44.2570319,65.1329068 22.3464188,65.2271012 C50.9619687,52.76913 85.9477646,51.0472966 118.10234,69.5823269 C107.829054,76.0797159 96.3929459,80.5179948 84.4310394,82.648004 Z" id="Shape" fill="#2B71FF" fill-rule="nonzero"></path>
    </g>
</svg>