<svg width="120" height="120" viewBox="0 0 120 120" fill="none" xmlns="http://www.w3.org/2000/svg">
<path fill-rule="evenodd" clip-rule="evenodd" d="M73.6542 32.4448L48.0947 86.4971H46.2017L71.7612 32.4448H73.6542ZM76.9686 50.3358C76.9686 48.8217 77.5372 47.5905 78.6723 46.6438C79.8401 45.6975 81.3387 45.2241 83.169 45.2241C84.3689 45.2241 85.5208 45.3503 86.6246 45.6027C87.761 45.855 89.0858 46.3438 90.6007 47.0704L89.7492 48.6793C88.3609 47.9849 87.1773 47.4961 86.1993 47.212C85.2204 46.9596 84.2264 46.8335 83.2171 46.8335C81.8601 46.8335 80.8022 47.1493 80.0452 47.7802C79.2568 48.411 78.862 49.2474 78.862 50.2886C78.862 51.2984 79.177 52.1661 79.8087 52.8918C80.4713 53.5862 81.9386 54.5956 84.211 55.9208C86.2623 57.1203 87.7451 58.1455 88.6605 58.9974C89.6072 59.881 90.3011 60.8277 90.7431 61.8375C91.1525 62.8473 91.3581 64.0622 91.3581 65.4823C91.3581 68.2907 90.5852 70.515 89.0394 72.1561C87.4927 73.7654 85.3302 74.5697 82.5545 74.5697C79.8722 74.5697 77.7256 73.7967 76.1163 72.2514C74.5383 70.736 73.7495 68.7014 73.7495 66.1441C73.7495 63.746 74.428 61.7903 75.7854 60.2759C77.1102 58.7296 79.2401 57.5778 82.1751 56.8203C80.219 55.7161 78.862 54.6745 78.105 53.6961C77.3467 52.6867 76.9686 51.5666 76.9686 50.3358ZM98.0795 47.1648L105.369 58.7137L112.754 47.1648H114.789L106.411 60.0862L115.451 74.1907H113.321L105.322 61.6011L97.18 74.1907H95.0982L104.186 60.0862L95.9496 47.1648H98.0795ZM79.6671 59.1871C78.7204 59.6604 77.9625 60.2286 77.3947 60.8908C76.8261 61.5221 76.4 62.28 76.1163 63.1628C75.8009 64.0464 75.6429 65.0403 75.6429 66.1441C75.6429 68.1963 76.2742 69.8365 77.5363 71.0677C78.7981 72.2973 80.4872 72.9131 82.6012 72.9131C84.7783 72.9131 86.4675 72.2827 87.6657 71.0197C88.8656 69.7253 89.4647 67.8645 89.4647 65.4351C89.4647 63.794 89.0226 62.3744 88.139 61.1753C87.2876 59.9763 85.8203 58.8557 83.7376 57.8142C81.9386 58.2562 80.5825 58.7137 79.6671 59.1871ZM18.463 45.6027C19.5989 45.855 20.9237 46.3438 22.4391 47.0704L21.5868 48.6793C20.198 47.9849 19.0148 47.4961 18.0368 47.212C17.0588 46.9596 16.0644 46.8335 15.0546 46.8335C13.6981 46.8335 12.6406 47.1493 11.8836 47.7802C11.0939 48.411 10.7004 49.2474 10.7004 50.2886C10.7004 51.2984 11.0154 52.1661 11.6471 52.8918C12.3093 53.5862 13.777 54.5956 16.0489 55.9208C18.0999 57.1203 19.583 58.1455 20.4975 58.9974C21.4447 59.881 22.1391 60.8277 22.5807 61.8375C22.9909 62.8473 23.1961 64.0622 23.1961 65.4823C23.1961 68.2907 22.4227 70.515 20.8769 72.1561C19.3307 73.7654 17.1686 74.5697 14.392 74.5697C11.7098 74.5697 9.56401 73.7967 7.95467 72.2514C6.37667 70.736 5.58789 68.7014 5.58789 66.1441C5.58789 63.746 6.26639 61.7903 7.62336 60.2759C8.94859 58.7296 11.0785 57.5778 14.0135 56.8203C12.0569 55.7161 10.7004 54.6745 9.9425 53.6961C9.18505 52.6867 8.80654 51.5666 8.80654 50.3358C8.80654 48.8217 9.37473 47.5905 10.5107 46.6438C11.6784 45.6975 13.177 45.2241 15.0074 45.2241C16.2065 45.2241 17.3583 45.3503 18.463 45.6027ZM11.5047 59.1871C10.558 59.6604 9.80093 60.2286 9.23229 60.8908C8.66452 61.5221 8.23838 62.28 7.95471 63.1628C7.63886 64.0464 7.48135 65.0403 7.48135 66.1441C7.48135 68.1963 8.1122 69.8365 9.37477 71.0677C10.6365 72.2973 12.3252 72.9131 14.4396 72.9131C16.6167 72.9131 18.305 72.2827 19.5041 71.0197C20.7031 69.7253 21.3031 67.8645 21.3031 65.4351C21.3031 63.794 20.861 62.3744 19.9774 61.1753C19.1256 59.9763 17.6579 58.8557 15.5756 57.8142C13.777 58.2562 12.4196 58.7137 11.5047 59.1871ZM47.0999 47.1648L38.107 63.7314V74.1907H36.1655V63.8726L27.1254 47.1648H29.3025L37.1603 61.9324L45.0645 47.1648H47.0999Z" fill="#231F20"/>
</svg>
