<svg id="Layer_1" data-name="Layer 1" xmlns="http://www.w3.org/2000/svg" viewBox="0 0 585 155.96"><defs><style>.cls-1{fill:#333;}.cls-2{fill:#004b6a;}</style></defs><title>IDEX_sf-color</title><g id="_Group_" data-name="&lt;Group&gt;"><g id="_Group_2" data-name="&lt;Group&gt;"><g id="_Group_3" data-name="&lt;Group&gt;"><path id="_Compound_Path_" data-name="&lt;Compound Path&gt;" class="cls-1" d="M78,0A78,78,0,1,1,0,77.17C.42,34.64,35.18-.11,78,0Zm1.66,5.66C38.24,5.67,5.88,38,5.71,77.55,5.53,117.49,38,150.35,78,150.21c19.81-.07,36.92-7.08,50.92-21.05,15.93-15.89,22.91-35.38,21.09-57.7A69.29,69.29,0,0,0,129.2,27C115.09,13,97.93,5.92,79.64,5.66Z"/><path id="_Compound_Path_2" data-name="&lt;Compound Path&gt;" class="cls-2" d="M148.08,70.34a67.57,67.57,0,0,0-20-41.95C114.27,14.53,97.44,7.49,77.82,7.46a70.52,70.52,0,0,0-.47,141c19.54.14,36.49-6.7,50.29-20.52C143.49,112.08,150.33,92.71,148.08,70.34ZM108.45,23.13a2.15,2.15,0,1,1-2.19,2.09A2.16,2.16,0,0,1,108.45,23.13ZM98.8,18.64A2.21,2.21,0,0,1,101,20.85a2.15,2.15,0,0,1-2.2,2.08,2.08,2.08,0,0,1-2.11-2.15A2.15,2.15,0,0,1,98.8,18.64ZM88.64,15.88A2.45,2.45,0,0,1,90.83,18a2.33,2.33,0,0,1-2.36,2.17A2.15,2.15,0,0,1,86.39,18,2.22,2.22,0,0,1,88.64,15.88ZM78,15a2.14,2.14,0,1,1-2.13,2.16A2.16,2.16,0,0,1,78,15Zm-10.51.89A2.24,2.24,0,0,1,69.6,18a2.15,2.15,0,0,1-2.23,2.14A2.12,2.12,0,0,1,65.27,18,2.21,2.21,0,0,1,67.45,15.88ZM57.21,18.64a2.15,2.15,0,0,1,2.12,2.16,2.08,2.08,0,0,1-2.12,2.13A2.15,2.15,0,0,1,55,20.75,2.22,2.22,0,0,1,57.21,18.64Zm-9.66,4.49a2.15,2.15,0,1,1,0,4.29,2.15,2.15,0,0,1,0-4.29ZM38.92,29.2a2.19,2.19,0,0,1,2.14,2.16,2.15,2.15,0,0,1-2.14,2.14,2.07,2.07,0,0,1-2.16-2.09A2.13,2.13,0,0,1,38.92,29.2Zm-7.46,7.49a2.17,2.17,0,0,1,2.08,2.21A2.15,2.15,0,0,1,31.37,41a2.21,2.21,0,0,1-2.15-2.16A2.24,2.24,0,0,1,31.45,36.69Zm-6.13,8.72a2.08,2.08,0,0,1,2.12,2.13,2.16,2.16,0,0,1-2.11,2.18,2.24,2.24,0,0,1-2.2-2.21A2.17,2.17,0,0,1,25.32,45.41ZM20.85,55A2.17,2.17,0,0,1,23,57.24a2.17,2.17,0,0,1-4.33-.13A2.19,2.19,0,0,1,20.85,55Zm-2.8,10.23a2.22,2.22,0,0,1,2.21,2.19,2.16,2.16,0,0,1-2.18,2.1A2.07,2.07,0,0,1,16,67.41,2.14,2.14,0,0,1,18.06,65.24ZM15,78a2.23,2.23,0,0,1,2.14-2.18,2.14,2.14,0,0,1,2.16,2.12,2.12,2.12,0,0,1-2.24,2.21A2.21,2.21,0,0,1,15,78Zm1,10.55a2.15,2.15,0,0,1,2.12-2.16,2.23,2.23,0,0,1,2.19,2.21,2.15,2.15,0,0,1-2.2,2.08A2.06,2.06,0,0,1,16,88.53Zm4.9,12.38a2.16,2.16,0,0,1-2.2-2.09,2.24,2.24,0,0,1,2.19-2.22A2.22,2.22,0,0,1,23,98.77,2.15,2.15,0,0,1,20.86,100.91Zm4.47,9.63a2.2,2.2,0,0,1-2.18-2.12,2.16,2.16,0,0,1,2.2-2.17,2.07,2.07,0,0,1,2.11,2.14A2.13,2.13,0,0,1,25.32,110.54Zm0-16.8.11-.39h22.8c5.92,0,5.92,0,5.92-6,0-5,.05-10,0-15,0-1.63.22-2.39,2.17-2.31,4.29.18,8.6.12,12.89,0,1.5,0,2,.46,2,1.93q-.07,12.59,0,25.19c0,1.6-.5,2.41-2.19,2.25a7.08,7.08,0,0,0-1.48,0C65.66,99.64,65,98.89,65,97c.09-6.07,0-12.13,0-18.2,0-1.67-.52-2.44-2.31-2.44s-2.38.56-2.35,2.34c.08,6.07,0,12.14.07,18.2,0,2-.61,2.56-2.54,2.53-6.14-.1-12.3.28-18.4-.17-2.88-.21-5.67-1.83-8.46-2.93C29.12,95.59,27.24,94.62,25.33,93.74Zm6.31,25.52A2.21,2.21,0,0,1,29.22,117a2.33,2.33,0,0,1,2.26-2.19,2.52,2.52,0,0,1,2.18,2.37A2.55,2.55,0,0,1,31.64,119.27Zm7.2,7.43a2.07,2.07,0,0,1-2.07-2.17,2.16,2.16,0,0,1,2.16-2.13,2.22,2.22,0,0,1,2.14,2.17A2.14,2.14,0,0,1,38.83,126.7Zm8.78,6.09a2.09,2.09,0,0,1-2.17-2.09,2.16,2.16,0,0,1,2.15-2.23,2.2,2.2,0,0,1,2.14,2.16A2.13,2.13,0,0,1,47.61,132.79Zm9.62,4.47A2.16,2.16,0,0,1,55,135.11,2.24,2.24,0,0,1,57.18,133a2.16,2.16,0,0,1,2.15,2.14A2.08,2.08,0,0,1,57.23,137.26Zm-8.14-32.49c-1.9-.76-3.72-1.72-5.58-2.59l.23-.61q14.59,0,29.19,0c4.52,0,3.94.4,3.95-4,0-13.05.05-26.11,0-39.16,0-2.15.59-2.8,2.74-2.72,4.16.16,8.32.1,12.49,0,1.5,0,2.17.39,2.17,2q-.05,24.24,0,48.47c0,1.74-.74,2.28-2.34,2a7.93,7.93,0,0,0-1.66-.25c-2.65.09-2.66.11-2.66-2.67q0-20,0-40c0-1.1.42-2.52-1.41-2.81-2.14-.34-2.78.16-2.78,2.4q0,20.32,0,40.64c0,2.76,0,2.77-2.84,2.77-7.06,0-14.11-.1-21.17,0C55.43,108.41,52.45,106.12,49.09,104.78ZM67.49,140a2.14,2.14,0,0,1-2.22-2.14,2.17,2.17,0,0,1,4.34,0A2.16,2.16,0,0,1,67.49,140ZM78,141a2.2,2.2,0,0,1-2.16-2.23A2.17,2.17,0,1,1,78,141Zm10.4-1a2.15,2.15,0,0,1-2-2.19,2.17,2.17,0,1,1,4.34.16A2.14,2.14,0,0,1,88.4,140Zm10.39-2.74a2.08,2.08,0,0,1-2.12-2.14A2.17,2.17,0,0,1,98.79,133a2.24,2.24,0,0,1,2.19,2.21A2.15,2.15,0,0,1,98.79,137.26Zm9.65-4.48a2.12,2.12,0,0,1-2.17-2.1,2.2,2.2,0,0,1,2.18-2.21,2.16,2.16,0,0,1,2.11,2.18A2.09,2.09,0,0,1,108.43,132.79Zm1.81-20.63c.32-3.18-.14-47.87-.13-61.42,0-1.31.14-2.53-1.87-2.5-1.62,0-2,.59-2,2.12.06,7.05-.11,59.68-.11,59.68s0,4.33,0,6.62c-.75.08-1.36.19-2,.2-9.16,0-18.33.18-27.48-.1-2.3-.07-4.59-1.53-6.83-2.47a42.56,42.56,0,0,1-7.44-3.86c.6,0,1.2-.11,1.8-.11l30.68.13c4.7,0,4.63,0,4.63-4.52,0-20.6,0-41.2,0-61.81,0-1.73.39-2.53,2.35-2.47,4.44.14,8.89.09,13.33,0,1.49,0,2,.51,2,2q0,23.18,0,46.35,0,12,0,24c0,2.85,0,2.85-2.94,2.86C109.7,116.89,109.77,116.77,110.24,112.16Zm6.85,14.54a2.14,2.14,0,0,1-2.16-2.11,2.22,2.22,0,0,1,2.21-2.19,2.15,2.15,0,0,1,2.09,2.19A2.06,2.06,0,0,1,117.09,126.7Zm.07-93.2a2.15,2.15,0,0,1-2.23-2.14,2.2,2.2,0,0,1,2.14-2.16,2.14,2.14,0,0,1,2.15,2.12A2.07,2.07,0,0,1,117.16,33.5Zm7.4,85.72a2.14,2.14,0,0,1,0-4.29,2.14,2.14,0,1,1,0,4.29Zm0-78.18a2.17,2.17,0,0,1,0-4.34,2.17,2.17,0,1,1,0,4.34ZM140,67.43a2.07,2.07,0,0,1-2.14,2.11,2.15,2.15,0,0,1-2.17-2.12A2.23,2.23,0,0,1,138,65.23,2.15,2.15,0,0,1,140,67.43Zm-9.34-22a2.17,2.17,0,0,1,2.16,2.13,2.24,2.24,0,0,1-2.22,2.18,2.16,2.16,0,0,1-2.08-2.2A2.08,2.08,0,0,1,130.7,45.41Zm0,65.13a2.13,2.13,0,0,1-2.13-2.14,2.07,2.07,0,0,1,2.1-2.15,2.16,2.16,0,0,1,2.21,2.16A2.2,2.2,0,0,1,130.68,110.54ZM135.14,55a2.19,2.19,0,0,1,2.19,2.11,2.17,2.17,0,0,1-4.34,0A2.18,2.18,0,0,1,135.14,55Zm.07,45.91A2.15,2.15,0,0,1,133,98.84a2.17,2.17,0,1,1,4.33-.09A2.16,2.16,0,0,1,135.21,100.91Zm2.65-10.25a2.17,2.17,0,0,1-2.13-2.15A2.22,2.22,0,0,1,138,86.37,2.15,2.15,0,0,1,140,88.59,2.07,2.07,0,0,1,137.86,90.66Zm1-10.56A2.07,2.07,0,0,1,136.7,78a2,2,0,0,1,1.93-2.2A2.29,2.29,0,0,1,141.08,78,2.1,2.1,0,0,1,138.91,80.1Z"/></g></g><g id="_Group_4" data-name="&lt;Group&gt;"><path id="_Compound_Path_3" data-name="&lt;Compound Path&gt;" class="cls-2" d="M195.55,140H175.24V28h20.31Z"/><path id="_Compound_Path_4" data-name="&lt;Compound Path&gt;" class="cls-2" d="M331.1,93.14A48.79,48.79,0,0,1,327.54,112a44,44,0,0,1-24.65,24.53A48.84,48.84,0,0,1,284.22,140H229.38a10.44,10.44,0,0,1-4.06-.78,9.78,9.78,0,0,1-5.39-5.39,10.44,10.44,0,0,1-.78-4.06V38.21a10.24,10.24,0,0,1,.78-4,10.36,10.36,0,0,1,2.15-3.28,9.64,9.64,0,0,1,3.24-2.19,10.48,10.48,0,0,1,4.06-.78h54.84a48.84,48.84,0,0,1,18.67,3.52,44,44,0,0,1,24.65,24.57,48.89,48.89,0,0,1,3.55,18.79ZM310.78,74.86A29.74,29.74,0,0,0,308.87,64a23.76,23.76,0,0,0-5.43-8.4,24.55,24.55,0,0,0-8.4-5.39,29.43,29.43,0,0,0-10.82-1.91H239.45V119.7h44.77A29.39,29.39,0,0,0,295,117.79a24.49,24.49,0,0,0,8.4-5.39,23.81,23.81,0,0,0,5.43-8.36,29.64,29.64,0,0,0,1.91-10.9Z"/><path id="_Compound_Path_5" data-name="&lt;Compound Path&gt;" class="cls-1" d="M452.27,140H379a32.55,32.55,0,0,1-9.22-1.48,26.94,26.94,0,0,1-16.37-13.71,28.36,28.36,0,0,1-2.85-13.32V38.21a10.24,10.24,0,0,1,.78-4,10.36,10.36,0,0,1,2.15-3.28,9.63,9.63,0,0,1,3.24-2.19,10.48,10.48,0,0,1,4.06-.78h91.48V48.29H370.86v63.2a8.25,8.25,0,0,0,2.11,6.09q2.11,2.11,6.17,2.11h73.13Zm-9.14-45.78H379V73.76h64.14Z"/><path id="_Compound_Path_6" data-name="&lt;Compound Path&gt;" class="cls-1" d="M523,68l34.22-40H585L536.8,84.15,584.69,140H557.11L523,100.32,489.14,140H461.49L509.3,84.15,461.33,28h27.5Z"/></g></g></svg>