<svg width="120" height="120" viewBox="0 0 120 120" fill="none" xmlns="http://www.w3.org/2000/svg">
<path fill-rule="evenodd" clip-rule="evenodd" d="M55.811 15.1243C46.3713 16.2002 38.8841 19.1855 32.1034 24.5768C6.76964 44.719 10.133 84.0411 38.5218 99.6183C51.491 106.735 68.6826 106.799 81.3649 99.7784C92.9202 93.3819 101.648 81.8232 104.073 69.707C105.711 61.5197 105.162 52.4806 102.575 45.0145C97.3458 29.9293 83.657 18.2858 68.0513 15.6498C64.7669 15.0951 58.447 14.8238 55.811 15.1243ZM60.7337 20.1491C61.9538 21.0038 60.9151 22.9316 59.5412 22.3624C58.2914 21.8447 58.6676 19.9221 60.0186 19.9221C60.2335 19.9221 60.5553 20.0243 60.7337 20.1491ZM54.1348 20.9096C54.6442 21.419 54.6419 22.1934 54.1291 22.675C52.9529 23.7799 51.2966 22.0511 52.438 20.9096C52.6747 20.673 52.9884 20.534 53.2865 20.534C53.5846 20.534 53.8982 20.673 54.1348 20.9096ZM67.6806 20.9813C68.242 21.5428 68.245 21.9282 67.6927 22.5462C66.7621 23.5876 65.1115 22.7084 65.5635 21.4122C65.8941 20.464 66.9485 20.2494 67.6806 20.9813ZM47.3055 22.4393C48.2299 22.9174 48.2318 24.1276 47.3088 24.6448C46.0574 25.3463 44.9048 23.69 45.9305 22.6643C46.4342 22.1606 46.6865 22.1194 47.3055 22.4393ZM74.1066 22.6643C74.6404 23.1979 74.6935 23.8454 74.2436 24.3285C73.2438 25.4018 71.5403 24.3405 72.1638 23.0329C72.5876 22.1443 73.4273 21.9851 74.1066 22.6643ZM41.3909 25.4277C41.8965 25.8254 42.029 26.391 41.7452 26.94C41.2958 27.8092 40.1679 27.8879 39.6082 27.0887C38.7966 25.9302 40.2767 24.5514 41.3909 25.4277ZM80.2707 25.5275C80.7317 25.9885 80.7908 26.5722 80.4291 27.0887C79.8694 27.8879 78.7415 27.8092 78.2919 26.94C77.6477 25.6942 79.2753 24.5322 80.2707 25.5275ZM35.6821 29.174C36.5135 29.604 36.5325 30.947 35.7136 31.3852C34.3706 32.104 33.1607 30.3258 34.3258 29.3455C34.8677 28.8894 35.0799 28.8626 35.6821 29.174ZM85.7112 29.3455C86.8676 30.3183 85.6688 32.1052 84.3376 31.3928C83.4986 30.9436 83.4905 29.6341 84.3241 29.1813C84.9054 28.8655 85.1795 28.8979 85.7112 29.3455ZM31.2158 34.2486C31.6749 34.7538 31.6621 35.4403 31.1845 35.9177C30.1341 36.9683 28.3649 35.5598 29.2775 34.3997C29.8955 33.614 30.5897 33.5599 31.2158 34.2486ZM90.6063 34.2342C91.0885 34.7004 91.0932 35.4062 90.618 35.912C89.5795 37.0174 87.8511 35.5722 88.7231 34.3274C89.2147 33.6254 89.9395 33.5896 90.6063 34.2342ZM84.4607 37.1471L84.8051 37.3715V60.835C84.8051 79.4237 84.7652 84.3302 84.6139 84.4492C84.1339 84.827 81.4119 84.8121 80.9091 84.4291C80.7172 84.2827 80.679 81.3567 80.6302 62.9924C80.5664 39.0199 80.6885 41.0365 79.3002 41.0365C77.7758 41.0365 77.92 38.7263 77.92 63.1622V84.6076L73.9802 84.7236C67.5578 84.9121 58.8893 84.7125 57.8648 84.3522C56.7791 83.9704 54.2771 82.8472 52.4065 81.9022C49.6766 80.5231 48.8442 80.6322 61.262 80.742C73.2822 80.8485 73.3365 80.8454 73.6216 80.0272C73.7394 79.6893 73.7888 73.3606 73.7888 58.602V37.6565L74.1528 37.2925L74.5168 36.9285L79.3166 36.9256C83.279 36.9232 84.1766 36.9619 84.4607 37.1471ZM27.2453 39.6636C28.3002 40.6463 27.1749 42.3849 25.908 41.7297C24.7047 41.1074 25.0934 39.3534 26.4345 39.3534C26.7029 39.3534 27.0582 39.4893 27.2453 39.6636ZM94.4136 39.6636C95.4336 40.6138 94.461 42.3154 93.1972 41.792C91.914 41.2603 92.2311 39.3534 93.6028 39.3534C93.8712 39.3534 94.2265 39.4893 94.4136 39.6636ZM24.4523 45.849C24.9295 46.3264 24.9425 47.0123 24.4837 47.5222C23.8903 48.1817 22.8508 48.0723 22.456 47.3087C21.8093 46.058 23.4568 44.8535 24.4523 45.849ZM97.1739 45.7186C97.9783 46.2818 97.8993 47.386 97.0244 47.8098C96.438 48.0939 95.8908 47.9818 95.5119 47.4999C94.6164 46.3618 95.9902 44.8893 97.1739 45.7186ZM69.9637 46.2384C70.2658 46.5406 70.2699 46.7486 70.2699 62.6099V78.6752L69.9495 78.9954C69.6869 79.2579 69.5281 79.2954 69.0696 79.2022C68.762 79.1398 68.0311 79.0473 67.4456 78.9966C66.0485 78.8759 66.1716 80.2694 66.1541 64.3549C66.1365 48.6496 66.275 50.0827 64.7688 50.0203C63.2598 49.9577 63.3846 48.6365 63.3846 64.6632C63.3846 76.4702 63.3514 78.6624 63.1676 78.9136C62.9584 79.1998 62.6695 79.2121 55.193 79.2529C46.2411 79.302 46.7219 79.3594 43.4942 77.8544C42.3582 77.3246 40.6886 76.5558 39.7839 76.146C38.8794 75.7362 38.1392 75.3458 38.1392 75.2785C38.1392 75.2111 42.7713 75.1561 48.4329 75.1561C57.5017 75.1561 58.7669 75.1276 59.0665 74.918L59.4065 74.6796V60.6121C59.4065 46.7486 59.411 46.5401 59.7127 46.2384C60.0056 45.9455 60.2226 45.9325 64.8381 45.9325C69.4538 45.9325 69.6708 45.9455 69.9637 46.2384ZM22.3078 52.0824C23.5538 52.6501 23.1442 54.5007 21.7723 54.5007C20.452 54.5007 20.1264 52.5505 21.3634 52.0513C21.8083 51.8718 21.8484 51.8732 22.3078 52.0824ZM99.1491 52.4495C99.8883 53.2769 99.3035 54.5007 98.1685 54.5007C97.7195 54.5007 96.8897 53.7342 96.8978 53.3267C96.9213 52.1118 98.3499 51.555 99.1491 52.4495ZM54.9203 55.1118C55.5805 55.1151 55.5815 55.1282 55.5815 64.2067C55.5815 74.437 55.7406 73.626 53.7343 73.626C52.7254 73.626 52.47 73.5745 52.2155 73.32C51.8465 72.951 51.8752 73.6042 51.9082 66.3233C51.9364 60.075 51.8793 59.4022 51.2951 59.0896C50.8002 58.8247 49.5333 58.907 49.1342 59.2302L48.7728 59.5226L48.7301 66.2609L48.6872 72.9992L48.2712 73.3262C47.6932 73.7808 35.615 73.7194 34.1612 73.2544C33.1599 72.9342 28.2881 70.8527 27.1995 70.28L26.4345 69.8775L35.2322 69.8009C40.0709 69.7589 44.1229 69.6645 44.2367 69.591C44.8208 69.2142 44.8713 68.6287 44.8735 62.1939C44.8756 55.5598 44.8882 55.3734 45.3468 55.1685C45.5098 55.0957 47.6897 55.053 50.1914 55.0736C52.6932 55.0943 54.8212 55.1113 54.9203 55.1118ZM21.8681 58.9271C22.9609 59.5935 22.5063 61.2147 21.223 61.228C19.9514 61.2411 19.5025 59.5945 20.5957 58.9279C21.1948 58.5626 21.27 58.5626 21.8681 58.9271ZM99.3433 58.8629C100.564 59.4939 100.199 61.2411 98.8501 61.228C97.6337 61.2162 97.0972 59.9331 97.9515 59.0789C98.4583 58.5724 98.7068 58.5337 99.3433 58.8629ZM22.2086 65.5336C23.5455 65.9996 23.2343 67.9649 21.8237 67.9649C20.2094 67.9649 20.121 66 21.7068 65.3699C21.7153 65.3666 21.9411 65.4401 22.2086 65.5336ZM98.7315 65.595C99.9654 66.2332 99.5869 67.9649 98.2133 67.9649C96.8544 67.9649 96.4811 66.1217 97.73 65.5774C98.3077 65.3258 98.2076 65.3241 98.7315 65.595ZM24.3572 72.3392C25.1733 73.026 24.864 74.2226 23.8016 74.4892C22.9047 74.7143 22.0327 73.6995 22.3872 72.8436C22.7766 71.9033 23.5915 71.6948 24.3572 72.3392ZM97.1433 72.1665C97.6617 72.5296 97.8773 73.2152 97.633 73.7239C97.2066 74.6106 96.1863 74.7702 95.5195 74.0543C94.5827 73.049 96.0189 71.3789 97.1433 72.1665ZM27.3907 78.6129C27.8612 79.1393 27.8266 79.6781 27.2878 80.217C26.2291 81.2756 24.5247 79.9189 25.3799 78.6982C25.8867 77.9747 26.7864 77.9365 27.3907 78.6129ZM94.559 78.6129C95.0293 79.1393 94.9949 79.6781 94.4561 80.217C93.3974 81.2756 91.693 79.9189 92.5482 78.6982C93.0547 77.9747 93.9547 77.9365 94.559 78.6129ZM31.0154 83.8974C31.6101 84.3653 31.7641 84.865 31.4814 85.4114C31.0272 86.2898 30.1097 86.4285 29.4063 85.7251C28.3127 84.6316 29.8004 82.9419 31.0154 83.8974ZM90.142 83.7408C91.4897 84.2106 91.1119 86.1724 89.6736 86.1724C88.3671 86.1724 88.0669 84.2194 89.2968 83.7231C89.477 83.6502 89.6316 83.5862 89.6402 83.581C89.6485 83.5755 89.8745 83.6476 90.142 83.7408ZM35.9961 88.8487C36.7607 89.6626 36.1955 90.9155 35.0636 90.9155C33.9791 90.9155 33.4571 89.6163 34.2307 88.843C34.7401 88.3336 35.5144 88.336 35.9961 88.8487ZM85.8066 88.843C86.2711 89.3076 86.2942 89.9666 85.8649 90.5123C85.4304 91.0646 84.5494 91.0751 84.0412 90.5341C82.9363 89.3578 84.6651 87.7016 85.8066 88.843ZM41.3909 92.5959C42.1799 93.2166 41.9911 94.349 41.0325 94.7462C40.1809 95.0989 39.191 94.2238 39.418 93.3188C39.6542 92.3775 40.6495 92.0128 41.3909 92.5959ZM80.1843 92.6026C80.8868 93.2571 80.7492 94.2423 79.8879 94.7256C79.3654 95.019 78.6123 94.7275 78.2919 94.1083C77.6871 92.9386 79.2286 91.7123 80.1843 92.6026ZM47.5811 95.5438C48.187 96.2057 48.15 96.9411 47.4857 97.4514C46.752 98.0147 45.4834 97.3632 45.4834 96.4234C45.4834 95.3718 46.8855 94.7837 47.5811 95.5438ZM74.1784 95.5751C75.1719 96.5688 74.0072 98.074 72.6483 97.5525C72.2843 97.4128 71.9198 96.6183 72.039 96.2246C72.3476 95.2063 73.4691 94.8658 74.1784 95.5751ZM53.8875 97.1064C54.8212 97.5892 54.7398 98.9187 53.7514 99.328C52.3469 99.9098 51.3189 97.839 52.6524 97.1145C53.1701 96.8332 53.3572 96.832 53.8875 97.1064ZM67.3538 97.1073C68.7317 97.82 67.7088 99.9176 66.2733 99.3228C65.3226 98.9292 65.2282 97.5971 66.1166 97.1145C66.6348 96.8332 66.8214 96.832 67.3538 97.1073ZM60.8672 97.87C61.9415 98.9443 60.5254 100.702 59.338 99.7685C58.8061 99.3501 58.6453 98.9066 58.8314 98.3726C59.145 97.4733 60.2079 97.2107 60.8672 97.87Z" fill="#004B6A"/>
</svg>
