<svg viewBox="0 0 126.94 67" xmlns="http://www.w3.org/2000/svg"><g fill="#141927"><path d="m67.77 31.45a2.28 2.28 0 0 1 -1.17.28c-.16 0-.51 0-1.09-.08v1.64a5.67 5.67 0 0 0 1.53.18 3.2 3.2 0 0 0 2-.61 4.87 4.87 0 0 0 1.41-1.92l4.49-10.12h-2.12l-2.72 6.63-2.64-6.63h-2.15l3.69 8.71-.38.85a2.29 2.29 0 0 1 -.85 1.07z"/><path d="m78.26 28.7a3.43 3.43 0 0 0 1.35 1.08 4.33 4.33 0 0 0 1.86.39 4.09 4.09 0 0 0 3.2-1.35 4.83 4.83 0 0 0 1.33-3.39 4.68 4.68 0 0 0 -1.34-3.43 4.34 4.34 0 0 0 -3.25-1.36h.07a3.86 3.86 0 0 0 -3.1 1.36v-5.9h-2v13.9h1.84v-1.3zm.84-5.45a2.78 2.78 0 0 1 2-.79 2.71 2.71 0 0 1 2 .83 2.9 2.9 0 0 1 .81 2.12 2.94 2.94 0 0 1 -.81 2.16 2.63 2.63 0 0 1 -2 .86 2.81 2.81 0 0 1 -2-.74 2.85 2.85 0 0 1 -.83-2.22 2.87 2.87 0 0 1 .83-2.22z"/><path d="m60.72 42.48a3.66 3.66 0 0 0 -2.76 1.11v-.9h-1.85v9.13h2v-5.45a2 2 0 0 1 .58-1.51 2.07 2.07 0 0 1 1.52-.59 2 2 0 0 1 1.47.59 2.1 2.1 0 0 1 .56 1.54v5.42h2v-5.69a3.74 3.74 0 0 0 -.91-2.63 3.35 3.35 0 0 0 -2.61-1.02z"/><path d="m70.73 42.47a4.73 4.73 0 0 0 -4.73 4.77 4.5 4.5 0 0 0 1.41 3.39 4.91 4.91 0 0 0 3.51 1.37 5.24 5.24 0 0 0 3.68-1.46l-.93-1.33a4 4 0 0 1 -2.67 1.07 3.23 3.23 0 0 1 -2-.63 2.68 2.68 0 0 1 -1-1.78h6.87a4.56 4.56 0 0 0 .13-1.22 4 4 0 0 0 -1.22-3 4.09 4.09 0 0 0 -3.05-1.18zm-2.73 3.9a2.85 2.85 0 0 1 1-1.63 2.64 2.64 0 0 1 1.69-.62 2.41 2.41 0 0 1 1.67.62 2.17 2.17 0 0 1 .64 1.63z"/><path d="m92.71 30.19a5.24 5.24 0 0 0 3.68-1.46l-.94-1.33a3.94 3.94 0 0 1 -2.68 1.07 3.23 3.23 0 0 1 -2-.63 2.68 2.68 0 0 1 -1-1.78h6.83a4.28 4.28 0 0 0 .18-1.22 4 4 0 0 0 -1.22-3 4.18 4.18 0 0 0 -3-1.19 4.75 4.75 0 0 0 -4.76 4.78 4.56 4.56 0 0 0 1.4 3.39 4.87 4.87 0 0 0 3.51 1.37zm-2-7.25a2.64 2.64 0 0 1 1.7-.61 2.45 2.45 0 0 1 1.66.61 2.21 2.21 0 0 1 .69 1.63h-5a2.82 2.82 0 0 1 .96-1.63z"/><path d="m81.58 50.22a2.12 2.12 0 0 1 -1.35-.34 1.48 1.48 0 0 1 -.44-1.22v-4.28h2.73v-1.69h-2.73v-2.38h-2v2.38h-1.48v1.69h1.49v4.44a3 3 0 0 0 .9 2.37 3.71 3.71 0 0 0 2.49.78 8.27 8.27 0 0 0 1.64-.21v-1.64c-.55.06-.93.1-1.22.1z"/><path d="m94.87 48.55-2.84-6.07h-.67l-2.79 6.15-2.43-5.94h-2.09l4.09 9.28h.67l2.89-6.04 2.88 6.04h.69l4.08-9.28h-2.09z"/><path d="m104.77 42.48a4.77 4.77 0 0 0 -3.45 1.37 4.74 4.74 0 0 0 0 6.75 5 5 0 0 0 6.9 0 4.7 4.7 0 0 0 0-6.76 4.8 4.8 0 0 0 -3.45-1.36zm2 6.84a2.92 2.92 0 0 1 -4.08 0 2.87 2.87 0 0 1 -.81-2.09 2.84 2.84 0 0 1 .81-2.11 2.87 2.87 0 0 1 2-.86 2.84 2.84 0 0 1 2 .84 2.89 2.89 0 0 1 .81 2.11 3 3 0 0 1 -.73 2.11z"/><path d="m113.29 43.87v-1.19h-1.83v9.12h2v-4.88a2.36 2.36 0 0 1 .76-1.85 2.79 2.79 0 0 1 1.91-.66h.59v-1.72a2.65 2.65 0 0 0 -.73-.09 3.21 3.21 0 0 0 -2.7 1.27z"/><path d="m100.57 25.13a2.35 2.35 0 0 1 .76-1.85 2.83 2.83 0 0 1 1.91-.67h.6v-1.71a2.78 2.78 0 0 0 -.74-.09 3.2 3.2 0 0 0 -2.68 1.28v-1.19h-1.84v9.1h2v-4.87z"/><path d="m118.53 37.89h1.97v13.92h-1.97z"/><path d="m122.88 46.68 3.71-3.99h-2.43l-3.6 3.98 4.01 5.13h2.37z"/><path d="m64.17 20.88h-2.44l-3.59 3.99 4.01 5.14h2.37l-4.06-5.12z"/><path d="m56.11 16.09h1.97v13.92h-1.97z"/></g><path d="m20 33.51 25 14.32a1.32 1.32 0 0 0 2-1.14v-26.38a1.31 1.31 0 0 0 -2-1.13z" fill="#31cb9e"/><path d="m44.47 12.84-17.09-12.57a1.36 1.36 0 0 0 -2.14.73l-6.24 28 25.32-14a1.26 1.26 0 0 0 .15-2.15" fill="#31cb9e"/><path d="m27.36 66.74 17.11-12.57a1.28 1.28 0 0 0 -.14-2.17l-25.33-14 6.24 28a1.35 1.35 0 0 0 2.12.77" fill="#31cb9e"/><path d="m13.5 33 6.5-30.41a1.29 1.29 0 0 0 -2-1.31l-16.65 12.77a3.45 3.45 0 0 0 -1.35 2.75v32.4a3.45 3.45 0 0 0 1.35 2.8l16.57 12.72a1.29 1.29 0 0 0 2-1.31z" fill="#31cb9e"/></svg>