<svg xmlns="http://www.w3.org/2000/svg" xmlns:xlink="http://www.w3.org/1999/xlink" viewBox="0 0 1559 682"><defs><style>.cls-1{fill:url(#linear-gradient);}.cls-2{fill:url(#linear-gradient-2);}.cls-3{fill:url(#linear-gradient-3);}.cls-4{fill:url(#linear-gradient-4);}.cls-5{fill:url(#linear-gradient-5);}</style><linearGradient id="linear-gradient" x1="238" y1="1099.75" x2="704" y2="1099.75" gradientUnits="userSpaceOnUse"><stop offset="0" stop-color="#85b8f7"/><stop offset="1" stop-color="#88acf7"/></linearGradient><linearGradient id="linear-gradient-2" x1="785" y1="1099.75" x2="1251" y2="1099.75" gradientUnits="userSpaceOnUse"><stop offset="0" stop-color="#88a8f7"/><stop offset="1" stop-color="#8b97f7"/></linearGradient><linearGradient id="linear-gradient-3" x1="1315" y1="1100" x2="1797" y2="1100" gradientUnits="userSpaceOnUse"><stop offset="0" stop-color="#8c94f7"/><stop offset="1" stop-color="#8f87f7"/></linearGradient><linearGradient id="linear-gradient-4" x1="531" y1="66.5" x2="664" y2="66.5" gradientUnits="userSpaceOnUse"><stop offset="0.01" stop-color="#89a4f7"/><stop offset="1" stop-color="#8aa0f7"/></linearGradient><linearGradient id="linear-gradient-5" x1="892" y1="66.5" x2="1025" y2="66.5" gradientUnits="userSpaceOnUse"><stop offset="0.01" stop-color="#8c96f7"/><stop offset="1" stop-color="#8c92f7"/></linearGradient></defs><title>nuo logo 2</title><g id="Layer_2" data-name="Layer 2"><path class="cls-1" d="M703.07,1105.09q.42-7,.43-14.09c0-128.41-104.09-232.5-232.5-232.5S238.5,962.59,238.5,1091q0,7.17.43,14.24L238,1285a56,56,0,0,0,112,0V1091a121,121,0,0,1,242,0v198.57l.19-.12A56,56,0,0,0,704,1285Z" transform="translate(-238 -659)"/></g><g id="Layer_4" data-name="Layer 4"><path class="cls-2" d="M1250.07,1094.41q.42,7,.43,14.09c0,128.41-104.09,232.5-232.5,232.5s-232.5-104.09-232.5-232.5q0-7.17.43-14.24L785,914.5a56,56,0,0,1,112,0v194a121,121,0,0,0,242,0V909.93l.19.12A56,56,0,0,1,1251,914.5Z" transform="translate(-238 -659)"/></g><g id="Layer_5" data-name="Layer 5"><path class="cls-3" d="M1556,859c-133.1,0-241,107.9-241,241s107.9,241,241,241,241-107.9,241-241S1689.1,859,1556,859Zm0,371a130,130,0,1,1,130-130A130,130,0,0,1,1556,1230Z" transform="translate(-238 -659)"/></g><g id="Layer_6" data-name="Layer 6"><circle class="cls-4" cx="597.5" cy="66.5" r="66.5"/><circle class="cls-5" cx="958.5" cy="66.5" r="66.5"/></g></svg>