<svg xmlns="http://www.w3.org/2000/svg" width="125" height="162" viewBox="0 0 125 162">
  <path fill="#8840FA" fill-rule="evenodd" d="M62.9407786,0 C97.2151402,-6.29609808e-15 125,27.7848598 125,62.0592214 L125,99.9407786 C125,134.21514 97.2151402,162 62.9407786,162 L62.0592214,162 C27.7848598,162 4.19739872e-15,134.21514 0,99.9407786 L0,62.0592214 C-4.19739872e-15,27.7848598 27.7848598,2.05069528e-14 62.0592214,0 L62.9407786,0 Z M62.20441,37.2413793 C47.7875426,37.2413793 36.1003624,48.9377386 36.1003624,63.365929 L36.1003624,63.365929 L36.0996517,67.2843793 L36.0696517,67.2846114 L36.0696517,124.758621 L36.4104155,124.755715 C47.0658655,124.573859 55.6476875,115.879418 55.6476875,105.180585 L55.6476875,105.180585 L55.648287,103.681282 C57.7431931,104.22358 59.940135,104.512095 62.20441,104.512095 C76.6212775,104.512095 88.3084577,92.8157354 88.3084577,78.387545 L88.3084577,78.387545 L88.3084577,63.365929 C88.3084577,48.9377386 76.6212775,37.2413793 62.20441,37.2413793 Z M62.20441,56.8347916 C65.8086269,56.8347916 68.730422,59.7588814 68.730422,63.365929 L68.730422,63.365929 L68.730422,78.387545 C68.730422,81.9945926 65.8086269,84.9186824 62.20441,84.9186824 C58.6001932,84.9186824 55.6783981,81.9945926 55.6783981,78.387545 L55.6783981,78.387545 L55.6783981,63.365929 C55.6783981,59.7588814 58.6001932,56.8347916 62.20441,56.8347916 Z"/>
</svg>
