<svg xmlns="http://www.w3.org/2000/svg" xmlns:xlink="http://www.w3.org/1999/xlink" viewBox="0 0 500 500"><defs><style>.cls-1{fill:url(#Gradient_2);}.cls-2{fill:url(#Gradient_2-2);}.cls-3{fill:url(#Gradient_2-3);}</style><linearGradient id="Gradient_2" x1="248.04" y1="10" x2="248.04" y2="309.52" gradientUnits="userSpaceOnUse"><stop offset="0" stop-color="#f77423"/><stop offset="1" stop-color="#fbce5b"/></linearGradient><linearGradient id="Gradient_2-2" x1="237.19" y1="309.51" x2="237.19" y2="186.56" xlink:href="#Gradient_2"/><linearGradient id="Gradient_2-3" x1="120.85" y1="566.51" x2="369.79" y2="317.57" xlink:href="#Gradient_2"/></defs><title>logo_square_gradient_2</title><g id="Square"><path class="cls-1" d="M368.3,260.38v0a15.68,15.68,0,0,1-.23,2.67,17.31,17.31,0,0,1-1.82,5.52l-.53.91a14.6,14.6,0,0,1-2.29,3l-.81.81-.33.25v0c-.2.15-.48.33-.78.55l0,.08c-.86.58-2,1.34-2.62,1.69q-6.24,4.23-12.79,7.93c-2,1.18-4.11,2.29-6.18,3.38-1.54.81-3.1,1.59-4.67,2.34q-.95.49-1.89.91c-1.41.68-2.8,1.34-4.24,2-.13,0-.28.13-.43.18q-2.61,1.21-5.3,2.27a4.7,4.7,0,0,1-.63.25c-1.59.65-3.18,1.28-4.77,1.86-.48.18-1,.38-1.46.55-3.68,1.36-7.42,2.59-11.17,3.7l-.53.18c-1.87.55-3.78,1.08-5.68,1.59-3.1.81-6.26,1.56-9.43,2.24-2,.43-4,.83-6.05,1.18-1.11.2-2.25.38-3.36.58-2.09.35-4.19.65-6.28.93s-4.29.5-6.46.71-4.26.38-6.41.53c-4.29.28-8.6.43-12.92.43a197,197,0,0,1-25.3-1.61c-5-.65-10-1.46-14.86-2.49q-7.08-1.44-14-3.4h0c-3.56-1-7.06-2.13-10.54-3.33a193.05,193.05,0,0,1-20.69-8.41,198,198,0,0,1-25-14.26l-.86-.55c-.5-.33-1-.65-1.49-1s-1-.71-1.46-1-.68-.65-1-1-.63-.68-.91-1a13.58,13.58,0,0,1-1.49-2.14v0a15.84,15.84,0,0,1-1.89-4.46,16.84,16.84,0,0,1-.55-4.38,20.32,20.32,0,0,1,.13-2.15,16.55,16.55,0,0,1,1.48-5.15c.15-.33.31-.66.48-1s.38-.65.58-1,.43-.65.66-1a192.67,192.67,0,0,1,29.39-37.53c1.14-1.13,2.3-2.27,3.46-3.38s2.35-2.19,3.53-3.27c.91-.83,1.82-1.64,2.75-2.44h0a.13.13,0,0,1,.08-.1c3.91-3.4,8-6.7,12.18-9.82l.48-.38.53-.4h0a17.09,17.09,0,0,1,1.79-1.44,18.18,18.18,0,0,1,2-1.28,24.66,24.66,0,0,1,3.05-1.54c.5-.23,1.06-.43,1.59-.6a25.32,25.32,0,0,1,3.36-.91,26.4,26.4,0,0,1,5.3-.53,25.57,25.57,0,0,1,5.9.68c.63.15,1.29.33,1.89.5A26.28,26.28,0,0,1,217,191.9q.57.42,1.13.87c.42.35.83.69,1.22,1.07a28.42,28.42,0,0,1,2.27,2.37l.5.63c1.16,1.51,2.35,3,3.56,4.48q3.63,4.42,7.52,8.62c1.29,1.41,2.62,2.8,4,4.16,2.83,2.85,5.75,5.64,8.73,8.31,2.72,2.44,5.5,4.79,8.37,7.08l.08-.05,1.51,1.28c.58.48,1.21,1,1.79,1.39l.23.18a12.74,12.74,0,0,0,7.37,1.79,13,13,0,0,0,12.07-11.46,12.79,12.79,0,0,0-3.7-10.56l-7.21-7.2c-.08,0-.13-.1-.2-.18L249,187.45l-17.05-17-98.63-98.5.1-.08a17.64,17.64,0,0,1-5.65-12.72v0a17.42,17.42,0,0,1,2-8.19l.09-.15a27.75,27.75,0,0,1,3.47-4.43l0,0a.09.09,0,0,0,0-.05h0l.38-.3v0q.3-.19.76-.53l-.05-.05c.88-.6,2-1.33,2.62-1.71,3.2-2.17,6.48-4.23,9.79-6.17a198.64,198.64,0,0,1,211.27,6L359,44c1,.65,2,1.36,3,2.07a18.3,18.3,0,0,1,3.43,4.13,17,17,0,0,1,2.42,9.2,18.05,18.05,0,0,1-1.27,6.06,15.38,15.38,0,0,1-2.05,3.86,193.12,193.12,0,0,1-20.26,27.76,200.14,200.14,0,0,1-31.13,28.77l-1.06.81a20.61,20.61,0,0,1-3.81,2.72A25.82,25.82,0,0,1,295,133h-.13a23.25,23.25,0,0,1-16-6.92c-10.07-9.9-37.08-35.91-37.08-35.91l-1.59-1.34a21.31,21.31,0,0,0-1.77-1.39l-.23-.18a12.34,12.34,0,0,0-5.94-1.8A13.08,13.08,0,0,0,218.91,95.7a12.86,12.86,0,0,0,3.54,11.76L362.68,247.68A17.56,17.56,0,0,1,368.3,260.38Z"/><path class="cls-2" d="M245.94,222.42c-3-2.67-5.92-5.47-8.73-8.32a190.78,190.78,0,0,1-15.06-17.26l-.49-.62a25.5,25.5,0,0,0-5.7-5.07,26.49,26.49,0,0,0-28.15-1,21.94,21.94,0,0,0-3.83,2.71l-.53.4-.49.4a196.68,196.68,0,0,0-51.4,56.54,18.08,18.08,0,0,0-1.25,2,17.81,17.81,0,0,0-2.09,8.27,16.86,16.86,0,0,0,2.45,8.85,16.46,16.46,0,0,0,3.43,4.14c.94.71,1.92,1.42,2.94,2.09l.85.53a195.7,195.7,0,0,0,70.24,29.4,198.93,198.93,0,0,0,138-21.66A313.62,313.62,0,0,1,245.94,222.42Z"/><path class="cls-3" d="M178.05,415.63l2.24.65v71.79H162.49v-8.13Q154.48,490,140,490q-13.8,0-23.67-10.54t-9.87-25.84q0-15.3,9.87-25.84T140,417.22q14.49,0,22.5,10.06h0A12.15,12.15,0,0,1,178.05,415.63Zm-48.42,52A18.41,18.41,0,0,0,143.3,473,18.63,18.63,0,0,0,157,467.6a20.67,20.67,0,0,0,0-28,18.63,18.63,0,0,0-13.73-5.45,18.41,18.41,0,0,0-13.67,5.45q-5.38,5.44-5.38,14T129.64,467.6Zm107-50.38q13.94,0,23.81,10.54t9.87,25.84q0,15.3-9.87,25.84T236.61,490q-14.49,0-22.36-10.06v8.13H196.44V390.31h0a12.68,12.68,0,0,1,17.81,11.58v25.4Q222.11,417.23,236.61,417.22Zm-17,50.38A18.4,18.4,0,0,0,233.29,473,18.64,18.64,0,0,0,247,467.6a20.67,20.67,0,0,0,0-28,18.64,18.64,0,0,0-13.73-5.45,18.4,18.4,0,0,0-13.66,5.45q-5.38,5.44-5.38,14T219.63,467.6Zm63.21,20.47V390.35h0a13.21,13.21,0,0,1,17.81,12.38v85.34Zm42.92-76.56a11.07,11.07,0,0,1-10.9-10.89,10.67,10.67,0,0,1,3.24-7.72,10.37,10.37,0,0,1,7.66-3.31,10.52,10.52,0,0,1,7.8,3.31,10.68,10.68,0,0,1,3.24,7.72,10.45,10.45,0,0,1-3.24,7.65A10.64,10.64,0,0,1,325.77,411.51Zm-8.83,76.56V431.47a13.21,13.21,0,0,1,17.81-12.38h0v69Zm49.14-27.15q3.59,13,19.46,13,10.21,0,15.46-6.89l14.36,8.27Q405.13,490,385.25,490q-17.11,0-27.47-10.34t-10.35-26.05q0-15.57,10.21-26t26.23-10.4q15.18,0,25.05,10.48t9.87,25.91a41.72,41.72,0,0,1-.69,7.3Zm-.28-13.78H401q-1.52-7-6.28-10.48a18,18,0,0,0-10.83-3.45A18.74,18.74,0,0,0,372,436.87,17.43,17.43,0,0,0,365.79,447.13ZM449,431a18.58,18.58,0,0,1,8.21-9.92A25.09,25.09,0,0,1,470,417.78v19.85a21,21,0,0,0-14.56,3.31q-6.42,4.27-6.42,14.2v32.94H431.21V436.93A17.79,17.79,0,0,1,449,419.15h0ZM59.29,489.76q-14.3-1.25-23.5-8.49l-.18-.15c-8.77-7-6.91-20.85,3.24-25.65l1.77-.84Q45,469.84,61.47,471.27q8,.7,11.94-1.86a9.1,9.1,0,0,0,.5-15.25q-4.29-3.21-15.69-7.53a100.11,100.11,0,0,1-10.59-4.8,47.4,47.4,0,0,1-8.49-5.93A21.08,21.08,0,0,1,33,427.14a26.78,26.78,0,0,1-1.33-11.74q1.14-13,11.1-20t23-5.81A37.32,37.32,0,0,1,85.9,397.1l.17.13c8.31,6.5,6.59,19.58-3,24l-1.52.71q-4.69-12.86-17.34-14-5.91-.52-9.52,1.87a8.49,8.49,0,0,0-4,6.64,8.77,8.77,0,0,0,3.14,7.67q3.53,3.15,14,7.38,4.28,1.76,6.48,2.71t6,2.87a37.64,37.64,0,0,1,5.79,3.48,48.59,48.59,0,0,1,4.56,4.14,19,19,0,0,1,3.77,5.17,27.57,27.57,0,0,1,2.32,13.9q-1.17,13.32-11.55,20.3T59.29,489.76Z"/></g></svg>