<?xml version="1.0" encoding="UTF-8"?>
<svg width="1057px" height="130px" viewBox="0 0 1057 130" version="1.1" xmlns="http://www.w3.org/2000/svg" xmlns:xlink="http://www.w3.org/1999/xlink">
    <!-- Generator: Sketch 56.3 (81716) - https://sketch.com -->
    <title>logo / full / synthetix / dark</title>
    <desc>Created with Sketch.</desc>
    <g id="logo-/-full-/-synthetix-/-dark" stroke="none" stroke-width="1" fill="none" fill-rule="evenodd">
        <path d="M217.968229,5 L176.216008,76.2552891 L176.216008,125 L160.752222,125 L160.752222,76.2552891 L119,5 L136.181984,5 L168.999574,62.3765867 L201.645344,5 L217.968229,5 Z M327.440649,125 L308.712286,125 L259.915451,28.5260931 L259.915451,125 L244.967125,125 L244.967125,5 L264.039128,5 L312.664143,101.981664 L312.664143,5 L327.440649,5 L327.440649,125 Z M458.720494,19.0479549 L417.483732,19.0479549 L417.483732,125 L401.848127,125 L401.848127,19.0479549 L360.439545,19.0479549 L360.439545,5 L458.720494,5 L458.720494,19.0479549 Z M576.536554,125 L560.900948,125 L560.900948,69.6544429 L509.183176,69.6544429 L509.183176,125 L493.71939,125 L493.71939,5 L509.183176,5 L509.183176,55.0987306 L560.900948,55.0987306 L560.900948,5 L576.536554,5 L576.536554,125 Z M697.118955,125 L616.53545,125 L616.53545,5 L697.118955,5 L697.118955,18.8787024 L631.827415,18.8787024 L631.827415,55.4372355 L681.13971,55.4372355 L681.13971,69.6544429 L631.827415,69.6544429 L631.827415,111.121298 L697.118955,111.121298 L697.118955,125 Z M825.3988,19.0479549 L784.162038,19.0479549 L784.162038,125 L768.526433,125 L768.526433,19.0479549 L727.117851,19.0479549 L727.117851,5 L825.3988,5 L825.3988,19.0479549 Z M924.812912,125 L855.397696,125 L855.397696,112.475317 L882.373411,112.475317 L882.373411,17.3554302 L855.397696,17.3554302 L855.397696,5 L924.812912,5 L924.812912,17.3554302 L897.837197,17.3554302 L897.837197,112.475317 L924.812912,112.475317 L924.812912,125 Z M1054,125 L1036.6462,125 L1006.06226,76.2552891 L975.821972,125 L958.811808,125 L997.471272,64.4076164 L958.811808,5 L976.337432,5 L1006.74954,51.8829337 L1036.81802,5 L1053.82818,5 L1015.34054,64.4076164 L1054,125 Z" id="Y-N-T-H-E-T-I-X" fill="#1E1A31"></path>
        <g id="logo-/-glyph-/-snx-/-dark">
            <polygon id="Stroke" fill="#4A4A4A" fill-rule="nonzero" opacity="0.5" points="16.2600445 121.656785 3.90136196 112.885697 81.6326795 5.44466333 93.991362 14.2157507"></polygon>
            <path d="M56.2994267,56.4805538 L60.4488116,56.4805538 C79.5529974,56.4805538 95.04,71.8361133 95.04,90.7781558 C95.04,109.720198 79.5529974,125.075758 60.4488116,125.075758 L9.57909492,125.075758 C5.38223108,125.075758 1.98,121.702403 1.98,117.54116 C1.98,113.379916 5.38223108,110.006561 9.57909492,110.006561 L60.4488116,110.006561 C71.1592699,110.006561 79.8418119,101.397711 79.8418119,90.7781558 C79.8418119,80.1586004 71.1592699,71.5497499 60.4488116,71.5497499 L40.7238194,71.5497499 L40.7205733,71.5497492 L36.5711884,71.5497492 C17.4670026,71.5497492 1.98,56.1941897 1.98,37.2521472 C1.98,18.3101048 17.4670026,2.95454545 36.5711884,2.95454545 L87.4409051,2.95454545 C91.6377689,2.95454545 95.04,6.32789991 95.04,10.4891435 C95.04,14.6503871 91.6377689,18.0237416 87.4409051,18.0237416 L36.5711884,18.0237416 C25.8607301,18.0237416 17.1781881,26.632592 17.1781881,37.2521472 C17.1781881,47.8717026 25.8607301,56.4805531 36.5711884,56.4805531 L56.2961806,56.4805531 C56.2972627,56.4805531 56.2983447,56.4805533 56.2994267,56.4805538 L56.2994267,56.4805538 Z" id="Path" fill="#1E1A31" fill-rule="evenodd"></path>
        </g>
    </g>
</svg>