<?xml version="1.0" encoding="utf-8"?>
<!-- Generator: Adobe Illustrator 19.2.1, SVG Export Plug-In . SVG Version: 6.00 Build 0)  -->
<svg version="1.1" id="layer" xmlns="http://www.w3.org/2000/svg" xmlns:xlink="http://www.w3.org/1999/xlink" x="0px" y="0px"
	 viewBox="0 0 652 652" style="enable-background:new 0 0 652 652;" xml:space="preserve">
<style type="text/css">
	.st0{fill:#21205D;}
</style>
<path class="st0" d="M49.3,333.5c-2.5,3.8-5,7.5-7.6,11.2c-0.2,0.2,0,0.2,0,0.2h24.6c0.2,0,0.3,0.1,0.5,0.2L78,355.4
	c0.1,0.1,0.2,0.3,0.2,0.5c0,0.4-0.3,0.7-0.7,0.7H22.5c-1,0-1.9-0.8-1.9-1.9c0,0-0.3-1.6,0.5-3c0.2-0.2,5.7-8.3,12.4-18.1L49.3,333.5
	z M49.3,310.5l7.7-11.2c0.3-0.4,0-0.4,0-0.4l-15.1-0.1H31.6c-0.2,0-0.4-0.1-0.5-0.2l-10.3-10.2c-0.3-0.3-0.3-0.7,0-0.9
	c0.1-0.1,0.3-0.2,0.5-0.2h55.1c1,0,1.9,0.9,1.9,1.9c0,0,0.2,1-0.5,2c-0.3,0.4-6.2,9.2-13.1,19.5L49.3,310.5L49.3,310.5z
	 M288.6,332.5l13.7,23.2c0.3,0.4-0.1,1-0.6,1h-12.1c-0.2,0-0.5-0.1-0.6-0.3L269.1,323c-0.3-0.4,0.1-1,0.6-1l9.4,0.1
	c3.2,0,6-1.1,8.3-3.4c2.3-2.1,3.6-5.1,3.6-8.2c0-3.1-1.2-5.8-3.6-8c-2.2-2.2-5.2-3.4-8.3-3.4h-23.5c-0.9,0-1.6-1.2-1.6-1.2
	c0,0-0.1-0.1-0.1-0.1l-5.5-9.2c-0.3-0.4,0.1-1,0.6-1h30.1c6.5,0,12.1,2.2,16.8,6.7c4.6,4.6,7,10,7,16.3c0,4.8-1.3,9.2-4.2,13.1
	c-2.6,3.7-5.9,6.3-9.7,8C288.6,331.7,288.4,332.1,288.6,332.5C288.6,332.4,288.6,332.5,288.6,332.5z M379.6,343.4l-11.4,10.1
	c-0.5,0.4-1.3,0.1-1.3-0.5v-64.8c0-0.6,0.8-0.9,1.3-0.5l11.4,9.9c0.1,0.1,0.2,0.3,0.2,0.5v44.8C379.9,343.1,379.8,343.3,379.6,343.4
	z M453,305.8c-4.6,4.5-6.8,10-6.8,16.3c0,6.3,2.2,11.9,6.8,16.4c4.6,4.5,10.2,6.7,16.7,6.7c6.4,0,12-2.2,16.6-6.7
	c4.7-4.6,6.9-10,6.9-16.4c0-6.3-2.3-11.8-6.9-16.3c-4.6-4.5-10.1-6.8-16.6-6.8C463.2,299,457.7,301.2,453,305.8z M494.5,297.7
	c7,6.7,10.5,14.9,10.5,24.4c0,9.6-3.5,17.7-10.5,24.4c-6.9,6.7-15.1,10.2-24.8,10.2c-9.8,0-18-3.5-24.9-10.2
	c-6.9-6.8-10.4-14.8-10.4-24.4c0-9.5,3.5-17.7,10.4-24.4c6.8-6.7,15.1-10.2,24.9-10.2C479.4,287.4,487.6,290.9,494.5,297.7z
	 M619.8,287.4c0.4,0,0.7,0.3,0.7,0.7v68.6L563,305.1c-0.1-0.1-0.2-0.3-0.2-0.5v-15.7c0-0.6,0.7-0.9,1.1-0.5l44,39.5
	c0.4,0.4,1.1,0.1,1.1-0.5v-39.3c0-0.4,0.3-0.7,0.7-0.7c0,0,0,0,0,0L619.8,287.4L619.8,287.4z M154.7,345.1h35.2
	c0.4,0,0.7,0.3,0.7,0.7V356c0,0.4-0.3,0.7-0.7,0.7h-46.8c-0.4,0-0.7-0.3-0.7-0.7c0-0.2,0.1-0.4,0.2-0.5l11.6-10.3
	C154.4,345.1,154.5,345.1,154.7,345.1L154.7,345.1z M154.1,316.4h26.8c0.4,0,0.7,0.3,0.7,0.7v10.2c0,0.4-0.3,0.7-0.7,0.7h-26.8h0.3
	v-11.5L154.1,316.4L154.1,316.4z M190.5,288.1v10.3c0,0.4-0.3,0.7-0.7,0.7h-35.1c-0.2,0-0.4-0.1-0.5-0.2l-10.6-10.3
	c-0.4-0.4-0.1-1.1,0.5-1.1h45.8C190.2,287.4,190.6,287.7,190.5,288.1L190.5,288.1z"/>
</svg>
