<svg
  width="30"
  height="30"
  viewBox="0 0 30 30"
  fill="none"
  xmlns="http://www.w3.org/2000/svg"
>
  <path
    d="M14.6744 18.8577C12.6293 18.8577 11.0264 17.1362 11.0264 15.0129C11.0264 12.8896 12.6846 11.1681 14.6744 11.1681C16.4983 11.1681 17.9907 12.5453 18.267 14.3817H21.9702C21.6386 10.4221 18.4881 7.32324 14.6744 7.32324C10.6395 7.32324 7.32324 10.7664 7.32324 15.0129C7.32324 19.2594 10.5843 22.7026 14.6744 22.7026C18.5434 22.7026 21.6386 19.6037 21.9702 15.6441H18.267C17.9907 17.4805 16.4983 18.8577 14.6744 18.8577Z"
    fill="white"
  />
  <path
    d="M0 10.6783C0 6.96659 0 5.08219 0.742342 3.65461C1.37048 2.39834 2.39833 1.37048 3.65461 0.742343C5.08219 1.76988e-06 6.96659 0 10.6783 0H18.6156C22.3274 0 24.2118 1.76988e-06 25.6393 0.742343C26.8956 1.37048 27.9235 2.39834 28.5516 3.65461C29.2939 5.08219 29.2939 6.96659 29.2939 10.6783V18.6156C29.2939 22.3274 29.2939 24.2118 28.5516 25.6393C27.9235 26.8956 26.8956 27.9235 25.6393 28.5516C24.2118 29.2939 22.3274 29.2939 18.6156 29.2939H10.6783C6.96659 29.2939 5.08219 29.2939 3.65461 28.5516C2.39833 27.9235 1.37048 26.8956 0.742342 25.6393C0 24.2118 0 22.3845 0 18.6156V10.6783Z"
    fill="#0052FF"
  />
  <path
    d="M14.6839 19.7734C11.9572 19.7734 9.82004 17.4779 9.82004 14.6469C9.82004 11.8159 12.0309 9.52049 14.6839 9.52049C17.1159 9.52049 19.1057 11.3568 19.4741 13.8053H24.4117C23.9696 8.5258 19.7689 4.39404 14.6839 4.39404C9.30417 4.39404 4.88245 8.98489 4.88245 14.6469C4.88245 20.309 9.23048 24.8998 14.6839 24.8998C19.8426 24.8998 23.9696 20.768 24.4117 15.4886H19.4741C19.1057 17.937 17.1159 19.7734 14.6839 19.7734Z"
    fill="white"
  />
</svg>
