<svg width="17" height="17" viewBox="0 0 17 17" fill="none" xmlns="http://www.w3.org/2000/svg">
<path d="M15.635 2.11687C14.1078 0.583438 11.6408 0.583438 10.1136 2.11687L6.89133 5.3354C5.9683 6.2622 5.59908 7.52602 5.80047 8.73928C5.88438 9.24481 6.06899 9.75034 6.35429 10.2053C6.50533 10.4581 6.68994 10.6771 6.89133 10.8962L7.51228 11.5197L8.65348 10.3738L8.03253 9.75034C7.81436 9.53128 7.64654 9.27851 7.54584 9.0089C7.2102 8.1832 7.37802 7.17215 8.04932 6.49811L11.2548 3.27959C12.1442 2.38649 13.5875 2.38649 14.4938 3.27959C15.3832 4.17268 15.3832 5.62186 14.4938 6.53181L12.9666 8.06525C13.2015 8.70558 13.3022 9.39647 13.2686 10.0705L15.6518 7.67767C17.1622 6.14424 17.1454 3.65031 15.635 2.11687Z" fill="#1652F0"/>
<path d="M11.271 7.74504C11.1199 7.49227 10.9353 7.25636 10.7172 7.05415L10.0962 6.43066L8.95501 7.57653L9.57596 8.20001C9.79413 8.41907 9.96195 8.68869 10.0626 8.9583C10.3983 9.784 10.2305 10.7782 9.55917 11.4522L6.35373 14.6708C5.46427 15.5639 4.02098 15.5639 3.11473 14.6708C2.22526 13.7777 2.22526 12.3285 3.11473 11.4185L4.64193 9.8851C4.40697 9.24477 4.30628 8.55388 4.35663 7.87984L1.97352 10.2727C0.446325 11.8061 0.446325 14.2832 1.97352 15.8166C3.50072 17.3501 5.98452 17.3501 7.51172 15.8166L10.7172 12.5981C11.6402 11.6713 11.9926 10.3906 11.808 9.19421C11.7241 8.68869 11.5395 8.20001 11.271 7.74504Z" fill="#1652F0"/>
</svg>
