<svg width="24" height="24" viewBox="0 0 24 24" fill="none" xmlns="http://www.w3.org/2000/svg">
<circle cx="12" cy="12" r="12" fill="#0052FF"/>
<path fill-rule="evenodd" clip-rule="evenodd" d="M9.3002 12C9.3002 12.5798 8.83009 13.05 8.2502 13.05C7.6703 13.05 7.2002 12.5798 7.2002 12C7.2002 11.4201 7.6703 10.95 8.2502 10.95C8.83009 10.95 9.3002 11.4201 9.3002 12ZM12.0002 13.05C12.5801 13.05 13.0502 12.5798 13.0502 12C13.0502 11.4201 12.5801 10.95 12.0002 10.95C11.4203 10.95 10.9502 11.4201 10.9502 12C10.9502 12.5798 11.4203 13.05 12.0002 13.05ZM15.7502 13.05C16.3301 13.05 16.8002 12.5798 16.8002 12C16.8002 11.4201 16.3301 10.95 15.7502 10.95C15.1703 10.95 14.7002 11.4201 14.7002 12C14.7002 12.5798 15.1703 13.05 15.7502 13.05Z" fill="white"/>
</svg>
