<svg width="32" height="32" viewBox="0 0 32 32" fill="none" xmlns="http://www.w3.org/2000/svg">
<rect width="32" height="32" rx="16" fill="#EEF0F3"/>
<path fill-rule="evenodd" clip-rule="evenodd" d="M9.6001 9.59998V20.8H22.4001V9.59998H9.6001ZM16.0001 18.2C14.3441 18.2 13.0001 16.856 13.0001 15.2C13.0001 13.544 14.3441 12.2 16.0001 12.2C17.6561 12.2 19.0001 13.544 19.0001 15.2C19.0001 16.856 17.6561 18.2 16.0001 18.2ZM9.6001 21.6H12.8001V22.4H9.6001V21.6ZM19.2001 21.6H22.4001V22.4H19.2001V21.6ZM17.8001 15.2C17.8001 16.1941 16.9942 17 16.0001 17C15.006 17 14.2001 16.1941 14.2001 15.2C14.2001 14.2059 15.006 13.4 16.0001 13.4C16.9942 13.4 17.8001 14.2059 17.8001 15.2Z" fill="#0A0B0D"/>
</svg>
