<svg width="24" height="24" viewBox="0 0 24 24" fill="none" xmlns="http://www.w3.org/2000/svg">
<circle cx="12" cy="12" r="12" fill="#0052FF"/>
<path d="M15.2273 8.77124H14.0273V9.97124H15.2273V8.77124Z" fill="white"/>
<path d="M12.4492 7.19922V11.5492H16.7992V7.19922L12.4492 7.19922ZM15.8992 10.6492H13.3492V8.09922H15.8992V10.6492Z" fill="white"/>
<path d="M9.971 8.77124H8.771V9.97124H9.971V8.77124Z" fill="white"/>
<path d="M7.19922 11.5492H11.5492V7.19922L7.19922 7.19922L7.19922 11.5492ZM8.09922 8.09922H10.6492V10.6492H8.09922V8.09922Z" fill="white"/>
<path d="M9.971 14.0272H8.771V15.2272H9.971V14.0272Z" fill="white"/>
<path d="M7.19922 16.7993H11.5492V12.4493H7.19922L7.19922 16.7993ZM8.09922 13.3493H10.6492V15.8993H8.09922V13.3493Z" fill="white"/>
<path d="M15.8992 14.3992H14.9992V12.4012H12.4492V16.7992H13.3492V13.3012H14.0992V15.2992H16.7992V12.4012H15.8992V14.3992Z" fill="white"/>
<path d="M14.9991 15.8993H14.0991V16.7993H14.9991V15.8993Z" fill="white"/>
<path d="M16.7994 15.8993H15.8994V16.7993H16.7994V15.8993Z" fill="white"/>
</svg>
