<svg width="142" height="42" viewBox="0 0 142 42" fill="none" xmlns="http://www.w3.org/2000/svg">
<rect width="141.75" height="42" fill="black" fill-opacity="0"/>
<rect width="141.75" height="42" fill="black" fill-opacity="0"/>
<rect width="141.75" height="42" fill="black" fill-opacity="0"/>
<rect width="141.75" height="42" fill="black" fill-opacity="0"/>
<rect width="141.75" height="42" fill="black" fill-opacity="0"/>
<rect width="141.75" height="42" fill="black" fill-opacity="0"/>
<rect width="141.75" height="42" fill="black" fill-opacity="0"/>
<path d="M130.462 0.0001365H11.2945C10.8601 0.0001365 10.4309 0.0001365 9.99768 0.00223649C9.63502 0.00433649 9.27526 0.010437 8.90912 0.0155714C8.1137 0.0238683 7.32015 0.0858963 6.53537 0.201116C5.75169 0.318845 4.99256 0.540796 4.28365 0.859464C3.57561 1.18083 2.92866 1.59841 2.36625 2.09705C1.8009 2.5943 1.32963 3.16904 0.970574 3.79919C0.610526 4.42809 0.360867 5.10201 0.23022 5.79767C0.098332 6.49246 0.0273616 7.19526 0.0179462 7.89977C0.0069534 8.22169 0.00579253 8.54469 0 8.86666V33.1366C0.00579253 33.4626 0.0069534 33.7784 0.0179462 34.1045C0.0273644 34.809 0.0983348 35.5118 0.23022 36.2065C0.360506 36.9026 0.61018 37.5769 0.970574 38.206C1.32947 38.8342 1.8008 39.4066 2.36625 39.9011C2.92652 40.4019 3.5739 40.8198 4.28365 41.1387C4.99255 41.4582 5.7516 41.6815 6.53537 41.801C7.32029 41.9153 8.11375 41.9774 8.90912 41.9867C9.27526 41.9938 9.63502 41.9979 9.99768 41.9979C10.4309 42 10.8601 42 11.2945 42H130.462C130.888 42 131.32 42 131.746 41.9979C132.107 41.9979 132.477 41.9938 132.838 41.9867C133.632 41.9779 134.424 41.9158 135.207 41.801C135.993 41.6806 136.755 41.4574 137.468 41.1387C138.177 40.8196 138.823 40.4017 139.383 39.9011C139.947 39.4046 140.42 38.8326 140.783 38.206C141.141 37.5765 141.388 36.9022 141.516 36.2065C141.648 35.5117 141.722 34.8091 141.736 34.1045C141.741 33.7784 141.741 33.4626 141.741 33.1366C141.75 32.7551 141.75 32.3757 141.75 31.9881V10.013C141.75 9.62852 141.75 9.24708 141.741 8.86666C141.741 8.54469 141.741 8.22169 141.736 7.89972C141.722 7.19516 141.648 6.49251 141.516 5.79763C141.388 5.10237 141.14 4.4285 140.783 3.79915C140.052 2.53608 138.892 1.50796 137.468 0.85937C136.755 0.54148 135.993 0.319588 135.207 0.201022C134.424 0.0852941 133.632 0.0232446 132.838 0.0154244C132.477 0.0103005 132.107 0.00414749 131.746 0.00209999C131.32 0 130.888 0 130.462 0V0.0001365Z" fill="#A6A6A6"/>
<path d="M10.0173 40.9479C9.6565 40.9479 9.30439 40.9439 8.94638 40.9368C8.20476 40.9282 7.46486 40.8714 6.73277 40.7666C6.05013 40.6631 5.38883 40.4705 4.7707 40.1951C4.15823 39.9221 3.59961 39.564 3.11623 39.1347C2.62586 38.7105 2.21761 38.2184 1.90765 37.6781C1.59427 37.1342 1.37739 36.5512 1.26457 35.9495C1.14274 35.3029 1.07682 34.6491 1.06739 33.9937C1.05988 33.7737 1.05005 33.0412 1.05005 33.0412V8.94545C1.05005 8.94545 1.06052 8.22425 1.06745 8.01237C1.07648 7.35803 1.14201 6.70524 1.26348 6.05965C1.37651 5.45625 1.59355 4.8716 1.9071 4.32594C2.21592 3.78595 2.62191 3.29353 3.10933 2.86776C3.5962 2.43795 4.1566 2.07807 4.77012 1.80124C5.38683 1.52679 6.04688 1.33553 6.72814 1.23387C7.46263 1.12806 8.2051 1.07086 8.9493 1.06274L10.0179 1.05H131.726L132.808 1.06325C133.545 1.07097 134.281 1.12766 135.009 1.23285C135.697 1.33578 136.364 1.52838 136.988 1.8043C138.217 2.36219 139.217 3.24482 139.848 4.32849C140.156 4.87037 140.37 5.45025 140.481 6.04845C140.604 6.69933 140.673 7.35725 140.687 8.01696C140.691 8.31236 140.691 8.62967 140.691 8.94545C140.7 9.33661 140.7 9.70891 140.7 10.0843V31.9146C140.7 32.2936 140.7 32.6633 140.691 33.0361C140.691 33.3753 140.691 33.6861 140.686 34.0059C140.672 34.6538 140.605 35.3 140.484 35.9392C140.373 36.5453 140.157 37.1329 139.844 37.6812C139.532 38.2157 139.126 38.7035 138.641 39.1266C138.158 39.5582 137.598 39.9183 136.984 40.1931C136.362 40.4706 135.696 40.6639 135.009 40.7666C134.277 40.8719 133.537 40.9288 132.795 40.9368C132.448 40.9439 132.085 40.9479 131.732 40.9479L130.448 40.95L10.0173 40.9479Z" fill="black"/>
<rect width="111.842" height="26.0096" fill="black" fill-opacity="0" transform="translate(10.4702 9.15642)"/>
<rect width="18.6024" height="22.8648" fill="black" fill-opacity="0" transform="translate(10.4702 9.15642)"/>
<rect width="18.6024" height="22.8648" fill="black" fill-opacity="0" transform="translate(10.4702 9.15642)"/>
<path d="M26.0074 21.3158C26.0303 19.5345 26.9642 17.8892 28.4818 16.9562C27.5201 15.5827 25.967 14.743 24.2911 14.6906C22.5279 14.5055 20.8185 15.7457 19.92 15.7457C19.0041 15.7457 17.6208 14.709 16.1311 14.7396C14.1711 14.803 12.3881 15.8903 11.4345 17.6039C9.40383 21.1197 10.9185 26.2868 12.8638 29.1288C13.837 30.5204 14.9745 32.0749 16.4628 32.0198C17.9192 31.9593 18.4632 31.091 20.2212 31.091C21.9629 31.091 22.4732 32.0198 23.9917 31.9847C25.5545 31.9593 26.5392 30.5869 27.4783 29.1821C28.1775 28.1905 28.7156 27.0946 29.0726 25.935C27.2165 25.1499 26.0096 23.3312 26.0074 21.3158Z" fill="white"/>
<path d="M23.1394 12.8216C23.9915 11.7986 24.4113 10.4838 24.3096 9.1564C23.0078 9.29313 21.8053 9.91532 20.9416 10.899C20.0889 11.8695 19.6569 13.1392 19.7408 14.4285C21.06 14.442 22.3127 13.8498 23.1394 12.8216Z" fill="white"/>
<rect width="78.8136" height="16.4012" fill="black" fill-opacity="0" transform="translate(43.4985 18.7648)"/>
<path d="M51.7673 28.4969H46.7972L45.6037 32.0211H43.4985L48.2061 18.9822H50.3933L55.1008 32.0211H52.9598L51.7673 28.4969ZM47.312 26.8706H51.2516L49.3095 21.151H49.2551L47.312 26.8706Z" fill="white"/>
<path d="M65.2678 27.2685C65.2678 30.2226 63.6866 32.1206 61.3005 32.1206C60.0672 32.1851 58.9054 31.5391 58.3095 30.4574H58.2643V35.166H56.313V22.5148H58.2018V24.0959H58.2377C58.8601 23.021 60.0231 22.3753 61.2646 22.4153C63.6773 22.4153 65.2678 24.3225 65.2678 27.2685ZM63.2621 27.2685C63.2621 25.3438 62.2675 24.0785 60.7499 24.0785C59.259 24.0785 58.2561 25.3705 58.2561 27.2685C58.2561 29.1839 59.259 30.4667 60.7499 30.4667C62.2675 30.4667 63.2621 29.2106 63.2621 27.2685Z" fill="white"/>
<path d="M75.7306 27.2685C75.7306 30.2226 74.1495 32.1206 71.7634 32.1206C70.5301 32.1851 69.3683 31.5391 68.7723 30.4574H68.7272V35.166H66.7759V22.5147H68.6646V24.0959H68.7005C69.323 23.021 70.486 22.3752 71.7275 22.4153C74.1403 22.4153 75.7306 24.3225 75.7306 27.2685ZM73.725 27.2685C73.725 25.3438 72.7303 24.0785 71.2128 24.0785C69.7219 24.0785 68.719 25.3705 68.719 27.2685C68.719 29.1839 69.7219 30.4667 71.2128 30.4667C72.7304 30.4667 73.725 29.2106 73.725 27.2685H73.725Z" fill="white"/>
<path d="M82.6459 28.3882C82.7905 29.6812 84.0466 30.5302 85.7631 30.5302C87.4078 30.5302 88.5911 29.6812 88.5911 28.5153C88.5911 27.5032 87.8775 26.8972 86.1876 26.4819L84.4978 26.0748C82.1035 25.4965 80.992 24.3768 80.992 22.5598C80.992 20.3101 82.9525 18.7648 85.7365 18.7648C88.4917 18.7648 90.3804 20.3101 90.444 22.5598H88.4742C88.3563 21.2586 87.2807 20.4731 85.7087 20.4731C84.1368 20.4731 83.0612 21.2678 83.0612 22.4245C83.0612 23.3463 83.7482 23.8887 85.4288 24.304L86.8654 24.6567C89.5406 25.2894 90.6522 26.364 90.6522 28.2712C90.6522 30.7106 88.709 32.2384 85.6185 32.2384C82.7269 32.2384 80.7746 30.7465 80.6484 28.3881L82.6459 28.3882Z" fill="white"/>
<path d="M94.8635 20.265V22.5148H96.6713V24.06H94.8635V29.3008C94.8635 30.1149 95.2255 30.4943 96.0202 30.4943C96.2348 30.4906 96.449 30.4755 96.6621 30.4492V31.9852C96.3048 32.052 95.9416 32.0822 95.5782 32.0755C93.6536 32.0755 92.903 31.3526 92.903 29.5089V24.06H91.5208V22.5148H92.903V20.265H94.8635Z" fill="white"/>
<path d="M97.7183 27.2685C97.7183 24.2774 99.4799 22.3979 102.227 22.3979C104.983 22.3979 106.737 24.2774 106.737 27.2685C106.737 30.2677 104.992 32.1391 102.227 32.1391C99.4624 32.1391 97.7183 30.2677 97.7183 27.2685ZM104.748 27.2685C104.748 25.2167 103.808 24.0057 102.227 24.0057C100.646 24.0057 99.7065 25.2259 99.7065 27.2685C99.7065 29.3285 100.646 30.5302 102.227 30.5302C103.808 30.5302 104.748 29.3285 104.748 27.2685H104.748Z" fill="white"/>
<path d="M108.345 22.5147H110.206V24.1328H110.251C110.511 23.0912 111.465 22.3743 112.538 22.4153C112.763 22.4145 112.987 22.4389 113.207 22.4881V24.3133C112.923 24.2265 112.627 24.1867 112.33 24.1953C111.756 24.1721 111.201 24.4007 110.81 24.8212C110.419 25.2417 110.232 25.812 110.297 26.3825V32.0211H108.345L108.345 22.5147Z" fill="white"/>
<path d="M122.204 29.229C121.941 30.9547 120.26 32.1391 118.11 32.1391C115.345 32.1391 113.628 30.2862 113.628 27.3136C113.628 24.3317 115.354 22.3979 118.028 22.3979C120.658 22.3979 122.312 24.2046 122.312 27.087V27.7555H115.598V27.8734C115.535 28.5812 115.78 29.2817 116.269 29.7969C116.758 30.3121 117.445 30.5923 118.155 30.5661C119.102 30.6548 119.995 30.1111 120.351 29.229L122.204 29.229ZM115.607 26.3918L120.36 26.3918C120.395 25.7558 120.164 25.1339 119.721 24.6759C119.279 24.2179 118.665 23.9653 118.028 23.979C117.386 23.9752 116.77 24.2279 116.315 24.681C115.86 25.134 115.606 25.7499 115.607 26.3918Z" fill="white"/>
<rect width="72.6014" height="6.67633" fill="black" fill-opacity="0" transform="translate(44.8042 8.85887)"/>
<rect width="72.6014" height="6.67633" fill="black" fill-opacity="0" transform="translate(44.8042 8.85887)"/>
<path d="M47.0672 9.16758C47.8956 9.10813 48.707 9.42331 49.2781 10.0263C49.8491 10.6294 50.1197 11.4567 50.0152 12.2807C50.0152 14.2822 48.9335 15.4328 47.0672 15.4328H44.8042V9.16758H47.0672ZM45.7773 14.5467H46.9585C47.5505 14.5821 48.127 14.3489 48.5278 13.9117C48.9286 13.4746 49.1112 12.8802 49.0247 12.2934C49.1049 11.7091 48.9197 11.1196 48.5199 10.686C48.1201 10.2525 47.5474 10.0203 46.9585 10.053H45.7773V14.5467Z" fill="white"/>
<path d="M51.1143 13.0666C51.0333 12.2191 51.4396 11.3989 52.163 10.95C52.8864 10.5012 53.8017 10.5012 54.5251 10.95C55.2485 11.3989 55.6548 12.2191 55.5738 13.0666C55.6564 13.915 55.2504 14.7367 54.5264 15.1866C53.8023 15.6364 52.8858 15.6364 52.1617 15.1866C51.4377 14.7367 51.0317 13.915 51.1143 13.0666ZM54.614 13.0666C54.614 12.0417 54.1536 11.4424 53.3456 11.4424C52.5345 11.4424 52.0782 12.0417 52.0782 13.0666C52.0782 14.0997 52.5345 14.6944 53.3456 14.6944C54.1536 14.6944 54.614 14.0956 54.614 13.0666H54.614Z" fill="white"/>
<path d="M61.5017 15.4327H60.5337L59.5565 11.9504H59.4827L58.5096 15.4327H57.5508L56.2476 10.7046H57.194L58.041 14.3124H58.1107L59.0828 10.7046H59.9779L60.95 14.3124H61.0238L61.8667 10.7046H62.7998L61.5017 15.4327Z" fill="white"/>
<path d="M63.896 10.7046H64.7942V11.4557H64.864C65.1065 10.9027 65.6731 10.5644 66.2749 10.6133C66.7409 10.5783 67.1976 10.757 67.5159 11.0992C67.8343 11.4413 67.9798 11.9096 67.9114 12.3719V15.4326H66.9783V12.6062C66.9783 11.8464 66.6482 11.4685 65.9581 11.4685C65.642 11.4538 65.3352 11.5778 65.1182 11.8081C64.9012 12.0384 64.7956 12.352 64.8291 12.6667V15.4327H63.896L63.896 10.7046Z" fill="white"/>
<path d="M69.3982 8.85887H70.3313V15.4326H69.3982V8.85887Z" fill="white"/>
<path d="M71.6282 13.0666C71.5472 12.219 71.9537 11.3989 72.6771 10.95C73.4005 10.5011 74.3159 10.5011 75.0393 10.95C75.7627 11.3989 76.1692 12.219 76.0882 13.0666C76.1707 13.915 75.7646 14.7367 75.0406 15.1866C74.3165 15.6364 73.3999 15.6364 72.6758 15.1866C71.9518 14.7367 71.5457 13.915 71.6282 13.0666ZM75.1279 13.0666C75.1279 12.0417 74.6675 11.4424 73.8595 11.4424C73.0484 11.4424 72.5921 12.0417 72.5921 13.0666C72.5921 14.0997 73.0484 14.6944 73.8595 14.6944C74.6675 14.6944 75.1279 14.0955 75.1279 13.0666H75.1279Z" fill="white"/>
<path d="M77.0708 14.0956C77.0708 13.2445 77.7045 12.7538 78.8293 12.6841L80.1101 12.6103V12.2022C80.1101 11.7028 79.7799 11.4208 79.1421 11.4208C78.6212 11.4208 78.2603 11.6121 78.1567 11.9464H77.2533C77.3487 11.1342 78.1126 10.6133 79.1852 10.6133C80.3705 10.6133 81.0391 11.2034 81.0391 12.2022V15.4327H80.1408V14.7682H80.067C79.7619 15.2535 79.2194 15.5371 78.6468 15.5106C78.2455 15.5523 77.8451 15.4223 77.5449 15.1527C77.2446 14.8831 77.0724 14.4991 77.0708 14.0956ZM80.1101 13.6916V13.2963L78.9555 13.3701C78.3043 13.4137 78.009 13.6352 78.009 14.052C78.009 14.4775 78.3782 14.7252 78.8858 14.7252C79.1863 14.7556 79.4862 14.6627 79.717 14.4679C79.9478 14.2731 80.0896 13.9929 80.1101 13.6916Z" fill="white"/>
<path d="M82.2654 13.0666C82.2654 11.5726 83.0334 10.6261 84.228 10.6261C84.8312 10.5984 85.3961 10.9216 85.6779 11.4556H85.7476V8.85887H86.6807V15.4326H85.7866V14.6856H85.7128C85.4097 15.2153 84.8378 15.533 84.228 15.5106C83.0252 15.5106 82.2654 14.5642 82.2654 13.0666ZM83.2293 13.0666C83.2293 14.0694 83.702 14.6729 84.4926 14.6729C85.279 14.6729 85.7651 14.0607 85.7651 13.0707C85.7651 12.0853 85.2739 11.4644 84.4926 11.4644C83.7071 11.4644 83.2292 12.0719 83.2292 13.0666H83.2293Z" fill="white"/>
<path d="M90.5411 13.0666C90.46 12.2191 90.8664 11.3989 91.5898 10.95C92.3132 10.5012 93.2285 10.5012 93.9518 10.95C94.6752 11.3989 95.0816 12.2191 95.0005 13.0666C95.0831 13.915 94.6771 14.7367 93.9531 15.1866C93.2291 15.6364 92.3125 15.6364 91.5885 15.1866C90.8645 14.7367 90.4585 13.915 90.5411 13.0666ZM94.0407 13.0666C94.0407 12.0417 93.5803 11.4424 92.7723 11.4424C91.9613 11.4424 91.505 12.0417 91.505 13.0666C91.505 14.0997 91.9613 14.6944 92.7723 14.6944C93.5804 14.6944 94.0407 14.0956 94.0407 13.0666Z" fill="white"/>
<path d="M96.2527 10.7046H97.1509V11.4557H97.2207C97.4631 10.9027 98.0298 10.5644 98.6316 10.6133C99.0976 10.5783 99.5543 10.757 99.8726 11.0992C100.191 11.4413 100.337 11.9096 100.268 12.3719V15.4326H99.335V12.6062C99.335 11.8464 99.0048 11.4685 98.3148 11.4685C97.9987 11.4538 97.6919 11.5778 97.4749 11.8081C97.2579 12.0384 97.1523 12.352 97.1858 12.6667V15.4327H96.2527V10.7046Z" fill="white"/>
<path d="M105.541 9.52743V10.7261H106.565V11.5121H105.541V13.9433C105.541 14.4385 105.745 14.6554 106.209 14.6554C106.328 14.655 106.447 14.6478 106.565 14.6339V15.4111C106.397 15.4411 106.228 15.457 106.057 15.4588C105.02 15.4588 104.607 15.0938 104.607 14.1822V11.512H103.856V10.7261H104.607V9.52743H105.541Z" fill="white"/>
<path d="M107.84 8.85887H108.765V11.4644H108.838C109.092 10.9065 109.669 10.5678 110.28 10.6174C110.743 10.5922 111.194 10.7749 111.509 11.1158C111.824 11.4566 111.97 11.9202 111.908 12.3801V15.4327H110.974V12.6103C110.974 11.8551 110.623 11.4726 109.963 11.4726C109.639 11.446 109.319 11.564 109.089 11.7951C108.86 12.0262 108.744 12.3468 108.773 12.6713V15.4326H107.84L107.84 8.85887Z" fill="white"/>
<path d="M117.349 14.1561C117.088 15.0479 116.224 15.6241 115.3 15.5239C114.67 15.5406 114.064 15.2792 113.643 14.8093C113.223 14.3393 113.03 13.7083 113.116 13.0835C113.032 12.457 113.224 11.8249 113.643 11.351C114.061 10.8771 114.664 10.6079 115.296 10.6133C116.612 10.6133 117.406 11.5121 117.406 12.9968V13.3224H114.067V13.3747C114.037 13.7256 114.157 14.0726 114.397 14.3305C114.637 14.5883 114.974 14.7331 115.326 14.7292C115.783 14.784 116.227 14.5576 116.451 14.156L117.349 14.1561ZM114.067 12.6323H116.455C116.479 12.3114 116.366 11.9954 116.144 11.7622C115.923 11.5289 115.613 11.4001 115.291 11.4075C114.965 11.4034 114.651 11.5311 114.421 11.7618C114.19 11.9924 114.063 12.3063 114.067 12.6323H114.067Z" fill="white"/>
</svg>
