<svg width="142" height="42" viewBox="0 0 142 42" fill="none" xmlns="http://www.w3.org/2000/svg">
<rect width="141.75" height="42" fill="black" fill-opacity="0"/>
<rect width="141.75" height="42" fill="black" fill-opacity="0"/>
<rect width="141.75" height="42" fill="black" fill-opacity="0"/>
<rect width="141.75" height="42" fill="black" fill-opacity="0"/>
<rect width="141.75" height="42" fill="black" fill-opacity="0"/>
<path d="M136.5 0H5.25C2.3505 0 0 2.3505 0 5.25V36.75C0 39.6495 2.3505 42 5.25 42H136.5C139.399 42 141.75 39.6495 141.75 36.75V5.25C141.75 2.3505 139.399 0 136.5 0Z" fill="black"/>
<path d="M136.5 0.84C138.936 0.84 140.91 2.81442 140.91 5.25V36.75C140.91 39.1856 138.936 41.16 136.5 41.16H5.25C2.81442 41.16 0.84 39.1856 0.84 36.75V5.25C0.84 2.81442 2.81442 0.84 5.25 0.84H136.5ZM136.5 0H5.25C2.3505 0 0 2.3505 0 5.25V36.75C0 39.6495 2.3505 42 5.25 42H136.5C139.399 42 141.75 39.6495 141.75 36.75V5.25C141.75 2.3505 139.399 0 136.5 0Z" fill="#A6A6A6"/>
<path d="M49.7911 10.752C49.8271 11.5303 49.5425 12.2893 49.0036 12.852C48.4013 13.4776 47.5614 13.8174 46.6936 13.7865C45.3625 13.7761 44.1674 12.9688 43.6609 11.7379C43.1543 10.5069 43.4349 9.09229 44.3731 8.148C44.9826 7.52569 45.8227 7.18359 46.6936 7.203C47.1375 7.20152 47.577 7.29085 47.9851 7.4655C48.365 7.61875 48.7033 7.85983 48.9721 8.169L48.4156 8.7255C47.9907 8.22011 47.3529 7.94397 46.6936 7.98C46.0309 7.97675 45.3954 8.24364 44.9338 8.71913C44.4722 9.19463 44.2242 9.83768 44.2471 10.5C44.233 11.5008 44.8225 12.4119 45.7412 12.8092C46.6599 13.2066 47.7274 13.0122 48.4471 12.3165C48.7702 11.9664 48.9565 11.5117 48.9721 11.0355H46.6936V10.2795H49.7491C49.7771 10.4354 49.7911 10.5936 49.7911 10.752Z" fill="white" stroke="white" stroke-width="0.2"/>
<path d="M54.6 8.127H51.765V10.122H54.348V10.878H51.765V12.873H54.6V13.65H50.925V7.35H54.6V8.127Z" fill="white" stroke="white" stroke-width="0.2"/>
<path d="M58.0442 13.65H57.2357V8.127H55.4717V7.35H59.8502V8.127H58.0442V13.65Z" fill="white" stroke="white" stroke-width="0.2"/>
<path d="M62.937 13.65V7.35H63.7455V13.65H62.937Z" fill="white" stroke="white" stroke-width="0.2"/>
<path d="M67.3367 13.65H66.5282V8.127H64.7642V7.35H69.0902V8.127H67.3367V13.65Z" fill="white" stroke="white" stroke-width="0.2"/>
<path d="M77.2905 12.831C76.0126 14.1017 73.9484 14.1017 72.6705 12.831C71.4318 11.5198 71.4318 9.46967 72.6705 8.15847C73.2816 7.5429 74.1131 7.1967 74.9805 7.1967C75.8479 7.1967 76.6794 7.5429 77.2905 8.15847C78.5345 9.46757 78.5345 11.5219 77.2905 12.831ZM73.269 12.306C74.2154 13.2484 75.7456 13.2484 76.692 12.306C77.6215 11.2813 77.6215 9.71859 76.692 8.69397C75.7456 7.75153 74.2154 7.75153 73.269 8.69397C72.3395 9.71859 72.3395 11.2813 73.269 12.306Z" fill="white" stroke="white" stroke-width="0.2"/>
<path d="M79.3591 13.65V7.35H80.3461L83.4121 12.2535V11.0355V7.35H84.2206V13.65H83.3806L80.1781 8.5155V9.7335V13.65H79.3591Z" fill="white" stroke="white" stroke-width="0.2"/>
<path d="M71.5472 22.8375C69.0853 22.8491 67.098 24.8521 67.1057 27.314C67.1134 29.7758 69.1133 31.7663 71.5751 31.7625C74.0369 31.7586 76.0306 29.7618 76.0307 27.3C76.048 26.1076 75.5804 24.9593 74.7352 24.118C73.89 23.2767 72.7395 22.8146 71.5472 22.8375ZM71.5472 30.009C70.4375 30.0866 69.3933 29.478 68.9138 28.4744C68.4343 27.4707 68.6171 26.2759 69.3747 25.4615C70.1323 24.6471 71.3107 24.3785 72.3464 24.7843C73.3821 25.1901 74.0644 26.1877 74.0672 27.3C74.1013 27.9958 73.853 28.6759 73.3785 29.186C72.904 29.6961 72.2436 29.9929 71.5472 30.009ZM61.7717 22.8375C59.3085 22.8433 57.3158 24.8438 57.3197 27.307C57.3235 29.7702 59.3224 31.7644 61.7856 31.7625C64.2488 31.7606 66.2446 29.7632 66.2447 27.3C66.2619 26.1076 65.7944 24.9593 64.9492 24.118C64.104 23.2767 62.9535 22.8146 61.7612 22.8375H61.7717ZM61.7717 30.009C60.6615 30.091 59.6141 29.4855 59.1313 28.4824C58.6484 27.4794 58.8283 26.2831 59.5848 25.4664C60.3413 24.6497 61.5204 24.379 62.5574 24.7839C63.5944 25.1888 64.2781 26.1868 64.2812 27.3C64.3153 27.9958 64.067 28.6759 63.5925 29.186C63.118 29.6961 62.4576 29.9929 61.7612 30.009H61.7717ZM50.1272 24.213V26.103H54.6632C54.592 26.9932 54.222 27.8332 53.6132 28.4865C52.6955 29.4213 51.4255 29.9247 50.1167 29.8725C47.3331 29.8725 45.0767 27.616 45.0767 24.8325C45.0767 22.049 47.3331 19.7925 50.1167 19.7925C51.3953 19.7717 52.6301 20.2588 53.5502 21.147L54.8837 19.8135C53.6288 18.5429 51.9129 17.8345 50.1272 17.85C47.5851 17.7511 45.1926 19.0509 43.8921 21.2374C42.5916 23.4239 42.5916 26.1467 43.8921 28.3332C45.1926 30.5197 47.5851 31.8194 50.1272 31.7205C51.9455 31.8027 53.7105 31.0944 54.9677 29.778C56.0677 28.5694 56.655 26.9806 56.6057 25.347C56.609 24.9491 56.5739 24.5517 56.5007 24.1605L50.1272 24.213ZM97.7027 25.683C97.142 24.0337 95.6215 22.9016 93.8807 22.8375C92.7197 22.8352 91.6097 23.3136 90.814 24.159C90.0183 25.0044 89.6081 26.1414 89.6807 27.3C89.6549 28.4858 90.1124 29.631 90.9481 30.4727C91.7837 31.3143 92.9257 31.7799 94.1116 31.7625C95.6035 31.7706 96.9998 31.029 97.8287 29.7885L96.3062 28.7385C95.8439 29.5092 95.0103 29.9798 94.1116 29.9775C93.1809 30.013 92.3231 29.4758 91.9487 28.623L97.9232 26.1555L97.7027 25.683ZM91.6127 27.174C91.5697 26.5179 91.7925 25.8722 92.2311 25.3823C92.6696 24.8924 93.2868 24.5996 93.9437 24.57C94.636 24.5244 95.2888 24.8962 95.6027 25.515L91.6127 27.174ZM86.7617 31.5H88.7252V18.375H86.7617V31.5ZM83.5487 23.835H83.4752C82.8766 23.1658 82.021 22.7838 81.1232 22.785C78.7398 22.9006 76.8668 24.8666 76.8668 27.2528C76.8668 29.6389 78.7398 31.6049 81.1232 31.7205C82.0239 31.7357 82.8851 31.3512 83.4752 30.6705H83.5382V31.311C83.5382 33.0225 82.6247 33.936 81.1547 33.936C80.1533 33.9126 79.2654 33.2861 78.9077 32.3505L77.1961 33.0645C77.8552 34.6677 79.4213 35.7104 81.1547 35.7C83.4542 35.7 85.3547 34.3455 85.3547 31.0485V23.1H83.5487V23.835ZM81.3017 30.009C79.8977 29.8853 78.8209 28.7094 78.8209 27.3C78.8209 25.8906 79.8977 24.7147 81.3017 24.591C81.9801 24.6258 82.6157 24.9331 83.0644 25.4431C83.5132 25.9531 83.737 26.6227 83.6852 27.3C83.743 27.9805 83.5199 28.655 83.0677 29.1667C82.6155 29.6784 81.9736 29.9828 81.2912 30.009H81.3017ZM106.901 18.375H102.207V31.5H104.171V26.523H106.911C108.436 26.6326 109.895 25.8809 110.691 24.5752C111.487 23.2695 111.487 21.6285 110.691 20.3228C109.895 19.0171 108.436 18.2654 106.911 18.375H106.901ZM106.901 24.675H104.16V20.202H106.943C108.187 20.202 109.195 21.2104 109.195 22.4543C109.195 23.6982 108.187 24.7065 106.943 24.7065L106.901 24.675ZM119.007 22.785C117.546 22.6977 116.173 23.4855 115.511 24.7905L117.254 25.515C117.605 24.8679 118.305 24.489 119.039 24.549C119.542 24.4902 120.048 24.6361 120.443 24.954C120.838 25.2719 121.089 25.7351 121.139 26.2395V26.376C120.508 26.0421 119.805 25.869 119.091 25.872C117.212 25.872 115.311 26.922 115.311 28.8225C115.349 29.6412 115.716 30.4099 116.329 30.9538C116.942 31.4977 117.749 31.7704 118.566 31.71C119.573 31.7823 120.54 31.2992 121.086 30.45H121.149V31.5H123.039V26.4495C123.039 24.15 121.296 22.8165 119.06 22.8165L119.007 22.785ZM118.766 29.9775C118.125 29.9775 117.233 29.652 117.233 28.8645C117.233 27.8145 118.346 27.468 119.333 27.468C119.956 27.4526 120.573 27.6049 121.118 27.909C120.982 29.0844 120.001 29.9802 118.818 30.009L118.766 29.9775ZM129.927 23.1L127.68 28.791H127.617L125.286 23.1H123.186L126.683 31.059L124.688 35.4795H126.735L132.111 23.1H129.927ZM112.277 31.5H114.24V18.375H112.277V31.5Z" fill="white"/>
<path d="M10.9621 7.91697C10.6199 8.32763 10.4471 8.85335 10.4791 9.38697V32.613C10.4471 33.1466 10.6199 33.6723 10.9621 34.083L11.0356 34.1565L24.0451 21.1575V20.853L11.0356 7.84347L10.9621 7.91697Z" fill="url(#paint0_linear)"/>
<path d="M28.3499 25.494L24.0449 21.1575V20.853L28.3499 16.506L28.4444 16.5585L33.5999 19.488C35.0699 20.3175 35.0699 21.6825 33.5999 22.5225L28.4654 25.4415L28.3499 25.494Z" fill="url(#paint1_linear)"/>
<path d="M28.4759 25.431L24.0449 21L10.9619 34.083C11.5801 34.6264 12.4975 34.6529 13.1459 34.146L28.4864 25.431" fill="url(#paint2_linear)"/>
<path d="M28.4762 16.569L13.1357 7.85399C12.4872 7.34713 11.5698 7.37359 10.9517 7.91699L24.0452 21L28.4762 16.569Z" fill="url(#paint3_linear)"/>
<path opacity="0.2" d="M28.3499 25.3365L13.1354 33.999C12.5128 34.4645 11.658 34.4645 11.0354 33.999L10.9619 34.0725L11.0354 34.146C11.6569 34.615 12.514 34.615 13.1354 34.146L28.4759 25.431L28.3499 25.3365Z" fill="black"/>
<path opacity="0.12" d="M10.9621 33.936C10.6199 33.5254 10.4471 32.9996 10.4791 32.466V32.6235C10.4471 33.1571 10.6199 33.6829 10.9621 34.0935L11.0356 34.02L10.9621 33.936Z" fill="black"/>
<path opacity="0.12" d="M33.6001 22.365L28.3501 25.3365L28.4446 25.431L33.6001 22.512C34.1955 22.2323 34.596 21.6556 34.6501 21C34.5304 21.5931 34.1426 22.0972 33.6001 22.365Z" fill="black"/>
<path opacity="0.25" d="M13.1358 8.001L33.6003 19.635C34.1428 19.9028 34.5306 20.4069 34.6502 21C34.5961 20.3444 34.1957 19.7677 33.6003 19.488L13.1358 7.854C11.6658 7.0245 10.4688 7.7175 10.4688 9.3975V9.555C10.5003 7.8645 11.6762 7.1715 13.1358 8.001Z" fill="white"/>
<defs>
<linearGradient id="paint0_linear" x1="22.8901" y1="9.14547" x2="2.05871" y2="14.6856" gradientUnits="userSpaceOnUse">
<stop stop-color="#00A0FF"/>
<stop offset="0.01" stop-color="#00A1FF"/>
<stop offset="0.26" stop-color="#00BEFF"/>
<stop offset="0.51" stop-color="#00D2FF"/>
<stop offset="0.76" stop-color="#00DFFF"/>
<stop offset="1" stop-color="#00E3FF"/>
</linearGradient>
<linearGradient id="paint1_linear" x1="35.5214" y1="21" x2="10.1219" y2="21" gradientUnits="userSpaceOnUse">
<stop stop-color="#FFE000"/>
<stop offset="0.41" stop-color="#FFBD00"/>
<stop offset="0.78" stop-color="#FFA500"/>
<stop offset="1" stop-color="#FF9C00"/>
</linearGradient>
<linearGradient id="paint2_linear" x1="26.0714" y1="23.415" x2="9.33814" y2="51.5619" gradientUnits="userSpaceOnUse">
<stop stop-color="#FF3A44"/>
<stop offset="1" stop-color="#C31162"/>
</linearGradient>
<linearGradient id="paint3_linear" x1="7.66516" y1="0.188989" x2="15.1341" y2="12.758" gradientUnits="userSpaceOnUse">
<stop stop-color="#32A071"/>
<stop offset="0.07" stop-color="#2DA771"/>
<stop offset="0.48" stop-color="#15CF74"/>
<stop offset="0.8" stop-color="#06E775"/>
<stop offset="1" stop-color="#00F076"/>
</linearGradient>
</defs>
</svg>
