<svg width="16" height="16" viewBox="0 0 16 16" fill="none" xmlns="http://www.w3.org/2000/svg">
<path d="M15.6667 13.3333H8H0.333333C0.146667 13.3333 0 13.48 0 13.6667V15.6667C0 15.8533 0.146667 16 0.333333 16H15.6667C15.8533 16 16 15.8533 16 15.6667V13.6667C16 13.48 15.8533 13.3333 15.6667 13.3333ZM15.3333 15.3333H0.666667V14H15.3333V15.3333Z" fill="#1652F0"/>
<path d="M15.7733 2.68667L8.10667 0.02C8.03333 -0.00666667 7.96 -0.00666667 7.88667 0.02L0.22 2.68667C0.0866667 2.73333 0 2.86 0 3V5C0 5.18667 0.146667 5.33333 0.333333 5.33333H2.66667V12H3.33333V5.33333H6V12H6.66667V5.33333H9.33333V12H10V5.33333H12.6667V12H13.3333V5.33333H15.6667C15.8533 5.33333 16 5.18667 16 5V3C16 2.86 15.9133 2.73333 15.7733 2.68667ZM15.3333 4.66667H0.666667V3.24L8 0.686667L15.3333 3.24V4.66667Z" fill="#1652F0"/>
</svg>
