<svg width="16" height="16" viewBox="0 0 16 16" fill="none" xmlns="http://www.w3.org/2000/svg">
<path d="M5.05273 7.57895L7.57905 10.1053L15.5791 2.10527" stroke="#1652F0"/>
<path fill-rule="evenodd" clip-rule="evenodd" d="M0.842105 8C0.842105 4.0468 4.0468 0.842105 8 0.842105C9.83354 0.842105 11.5052 1.53095 12.7718 2.66463C12.835 2.72115 12.8971 2.77877 12.9582 2.83746L13.5538 2.2419C13.4816 2.17229 13.4082 2.10403 13.3334 2.03715C11.9184 0.770625 10.0487 0 8 0C3.58172 0 0 3.58172 0 8C0 12.4183 3.58172 16 8 16C12.4183 16 16 12.4183 16 8C16 6.72357 15.7008 5.51582 15.1682 4.4442C15.1638 4.43537 15.1594 4.42656 15.155 4.41775L14.5235 5.0493C14.9309 5.94854 15.1579 6.94725 15.1579 8C15.1579 11.9532 11.9532 15.1579 8 15.1579C4.0468 15.1579 0.842105 11.9532 0.842105 8Z" fill="#1652F0"/>
</svg>
