<svg width="48" height="48" viewBox="0 0 48 48" fill="none" xmlns="http://www.w3.org/2000/svg">
<path d="M40.5 15H34.5V10.5C34.5 4.71 29.79 0 24 0C18.21 0 13.5 4.71 13.5 10.5V15H7.5C6.672 15 6 15.672 6 16.5V46.5C6 47.328 6.672 48 7.5 48H40.5C41.328 48 42 47.328 42 46.5V16.5C42 15.672 41.328 15 40.5 15ZM25.5 34.287V39H22.5V34.287C19.92 33.6165 18 31.287 18 28.5C18 25.191 20.691 22.5 24 22.5C27.309 22.5 30 25.191 30 28.5C30 31.287 28.08 33.6165 25.5 34.287ZM31.5 15H16.5V10.5C16.5 6.3645 19.8645 3 24 3C28.1355 3 31.5 6.3645 31.5 10.5V15Z" fill="#5200FF"/>
</svg>
