<svg width="100" height="100" viewBox="0 0 100 100" fill="none" xmlns="http://www.w3.org/2000/svg">
<path d="M48.4844 98.4375C48.4844 97.5781 49.1875 96.875 50.0469 96.875C50.9062 96.875 51.6094 97.5781 51.6094 98.4375C51.6094 99.2969 50.9062 100 50.0469 100C49.1875 100 48.4844 99.2969 48.4844 98.4375ZM37.1094 98.3281C36.2812 98.0938 35.7812 97.2344 36 96.4062C36.2344 95.5781 37.0781 95.0781 37.9219 95.2969C38.75 95.5156 39.25 96.375 39.0312 97.2188C38.8438 97.9062 38.2031 98.375 37.5156 98.375C37.3906 98.375 37.25 98.3594 37.1094 98.3281ZM61.0625 97.1875C60.8438 96.3594 61.3438 95.5 62.1719 95.2812C63 95.0625 63.8594 95.5469 64.0781 96.3906C64.3125 97.2188 63.8125 98.0781 62.9844 98.2969C62.8438 98.3281 62.7031 98.3438 62.5781 98.3438C61.8906 98.3438 61.25 97.8906 61.0625 97.1875ZM25.0625 93.3438C24.2969 92.9062 24.0469 91.9531 24.4844 91.2031C24.9062 90.4531 25.8594 90.2031 26.625 90.6406C27.3594 91.0625 27.6094 92.0156 27.1875 92.7656C26.8906 93.2656 26.375 93.5469 25.8281 93.5469C25.5625 93.5469 25.2969 93.4844 25.0625 93.3438ZM72.8906 92.7188C72.4688 91.9688 72.7188 91.0156 73.4688 90.5938C74.2188 90.1562 75.1719 90.4062 75.5938 91.1562C76.0312 91.9062 75.7812 92.8594 75.0312 93.2969C74.7812 93.4375 74.5156 93.5 74.25 93.5C73.7188 93.5 73.1875 93.2188 72.8906 92.7188ZM14.7031 85.4062C14.0781 84.7969 14.0781 83.8125 14.6875 83.2031C15.2969 82.5781 16.2969 82.5781 16.9062 83.1875C17.5156 83.7969 17.5156 84.7969 16.9062 85.4062C16.5938 85.7031 16.2031 85.8594 15.7969 85.8594C15.4062 85.8594 15 85.7031 14.7031 85.4062ZM83.1562 85.3438C82.5469 84.7344 82.5469 83.7344 83.1562 83.125C83.7656 82.5156 84.75 82.5156 85.375 83.125C85.9844 83.7344 85.9844 84.7344 85.375 85.3438C85.0625 85.6406 84.6719 85.7969 84.2656 85.7969C83.8594 85.7969 83.4688 85.6406 83.1562 85.3438ZM6.73438 75.0781C6.29688 74.3281 6.54688 73.375 7.29688 72.9375C8.04688 72.5 9 72.7656 9.4375 73.5C9.875 74.25 9.60938 75.2031 8.875 75.6406C8.625 75.7812 8.34375 75.8594 8.07812 75.8594C7.54688 75.8594 7.03125 75.5781 6.73438 75.0781ZM91.1875 75.5625C90.4375 75.125 90.1719 74.1719 90.6094 73.4219C91.0469 72.6875 92 72.4219 92.75 72.8594C93.4844 73.2812 93.75 74.25 93.3125 74.9844C93.0312 75.4844 92.5 75.7656 91.9531 75.7656C91.6875 75.7656 91.4219 75.7031 91.1875 75.5625ZM1.71875 63.0312C1.5 62.2031 1.98438 61.3438 2.8125 61.1094C3.65625 60.8906 4.51562 61.3906 4.73438 62.2188C4.95312 63.0469 4.46875 63.9062 3.625 64.1406C3.5 64.1719 3.35938 64.1875 3.23438 64.1875C2.53125 64.1875 1.90625 63.7344 1.71875 63.0312ZM96.3906 64.0469C95.5625 63.8125 95.0625 62.9531 95.2969 62.125C95.5156 61.2969 96.375 60.7969 97.2031 61.0156C98.0312 61.25 98.5312 62.0937 98.3125 62.9375C98.125 63.625 97.4844 64.0938 96.7969 64.0938C96.6719 64.0938 96.5312 64.0781 96.3906 64.0469ZM0 50.0938C0 49.2344 0.703125 48.5312 1.5625 48.5312C2.42188 48.5312 3.125 49.2344 3.125 50.0938C3.125 50.9531 2.42188 51.6563 1.5625 51.6563C0.703125 51.6563 0 50.9688 0 50.0938ZM96.875 50C96.875 49.9688 96.875 49.9375 96.875 49.9062C96.875 49.875 96.875 49.8438 96.875 49.8125C96.875 48.9375 97.5625 48.2344 98.4375 48.2344C99.2969 48.2344 100 48.9375 100 49.7969C100 49.8281 100 49.8594 100 49.8906C100 49.9375 100 49.9688 100 50C100 50.8594 99.2969 51.5625 98.4375 51.5625C97.5781 51.5625 96.875 50.8594 96.875 50ZM2.76562 39.0781C1.9375 38.8594 1.4375 38 1.67188 37.1719C1.875 36.3281 2.73438 35.8281 3.57812 36.0469C4.40625 36.2812 4.90625 37.125 4.6875 37.9688C4.5 38.6562 3.85938 39.125 3.17188 39.125C3.04688 39.125 2.90625 39.1094 2.76562 39.0781ZM95.2344 37.6875C95.0156 36.8438 95.5 36 96.3438 35.7656C97.1719 35.5469 98.0312 36.0312 98.2656 36.8594C98.2656 36.8594 98.2656 36.8594 98.25 36.8594C98.4844 37.7031 97.9844 38.5625 97.1562 38.7812C97.0156 38.8281 96.875 38.8438 96.75 38.8438C96.0625 38.8438 95.4375 38.375 95.2344 37.6875ZM7.20312 27.2344C6.45312 26.7969 6.20312 25.8438 6.64062 25.0938C6.64062 25.0938 6.64062 25.0938 6.625 25.0938C7.0625 24.3438 8.01562 24.0938 8.76562 24.5156C9.51562 24.9531 9.76562 25.9062 9.34375 26.6562C9.04688 27.1562 8.53125 27.4375 7.98438 27.4375C7.71875 27.4375 7.45312 27.375 7.20312 27.2344ZM90.5156 26.4062C90.0781 25.6562 90.3281 24.7031 91.0781 24.2812C91.8281 23.8438 92.7812 24.0938 93.2188 24.8281C93.6562 25.5781 93.3906 26.5312 92.6562 26.9688C92.4062 27.1094 92.1406 27.1875 91.875 27.1875C91.3281 27.1875 90.8125 26.9062 90.5156 26.4062ZM14.5625 16.9375C13.9531 16.3281 13.9531 15.3438 14.5625 14.7344C15.1562 14.125 16.1562 14.125 16.7656 14.7188C17.375 15.3281 17.375 16.3281 16.7656 16.9375C16.4688 17.2344 16.0625 17.3906 15.6563 17.3906C15.2656 17.3906 14.8594 17.25 14.5625 16.9375ZM83.0312 16.7344C82.4219 16.125 82.4219 15.1406 83.0156 14.5312C83.625 13.9062 84.625 13.9062 85.2344 14.5156C85.8438 15.125 85.8438 16.1094 85.2344 16.7344C84.9375 17.0312 84.5312 17.1875 84.125 17.1875C83.7344 17.1875 83.3281 17.0469 83.0312 16.7344ZM24.3125 8.89062C23.875 8.14062 24.1406 7.1875 24.875 6.76562C25.625 6.32812 26.5781 6.57812 27.0156 7.32812C27.4531 8.0625 27.2031 9.03125 26.4531 9.45312C26.2031 9.60938 25.9375 9.67188 25.6719 9.67188C25.125 9.67188 24.6094 9.39062 24.3125 8.89062ZM73.2969 9.3125C72.5469 8.89062 72.2969 7.9375 72.7188 7.1875C73.1562 6.4375 74.1094 6.17188 74.8594 6.60938C75.6094 7.03125 75.8594 8 75.4375 8.73438C75.1406 9.25 74.625 9.53125 74.0781 9.53125C73.8125 9.53125 73.5469 9.45312 73.2969 9.3125ZM35.8125 3.64062C35.5938 2.8125 36.0781 1.95312 36.9219 1.73438C36.9219 1.73438 36.9219 1.73438 36.9219 1.71875C37.75 1.5 38.6094 2 38.8438 2.82812C39.0625 3.67188 38.5625 4.51562 37.7344 4.75C37.5938 4.78125 37.4688 4.79688 37.3281 4.79688C36.6406 4.79688 36.0156 4.34375 35.8125 3.64062ZM61.9844 4.67188C61.1562 4.45312 60.6562 3.59375 60.875 2.76562C61.0938 1.92187 61.9531 1.42187 62.7812 1.65625C63.625 1.875 64.125 2.71875 63.8906 3.5625C63.7188 4.26562 63.0781 4.71875 62.3906 4.71875C62.25 4.71875 62.125 4.70312 61.9844 4.67188ZM48.2969 1.5625C48.2812 0.703125 48.9844 0 49.8438 0C50.7031 0 51.4062 0.6875 51.4219 1.5625C51.4219 2.42188 50.7188 3.125 49.8594 3.125C49 3.125 48.2969 2.4375 48.2969 1.5625Z" fill="#1652F0"/>
<path d="M50 89.0625C28.4531 89.0625 10.9375 71.5469 10.9375 50C10.9375 28.4531 28.4531 10.9375 50 10.9375C71.5469 10.9375 89.0625 28.4531 89.0625 50C89.0625 71.5469 71.5469 89.0625 50 89.0625ZM50 14.0625C30.1875 14.0625 14.0625 30.1875 14.0625 50C14.0625 69.8125 30.1875 85.9375 50 85.9375C69.8125 85.9375 85.9375 69.8125 85.9375 50C85.9375 30.1875 69.8125 14.0625 50 14.0625Z" fill="#1652F0"/>
<path d="M47.2656 61.9062C46.8594 61.9062 46.4688 61.75 46.1563 61.4531L37.1875 52.4844C36.5781 51.875 36.5781 50.8906 37.1875 50.2812C37.7969 49.6719 38.7812 49.6719 39.3906 50.2812L47.2656 58.1562L63.7344 41.6875C64.3438 41.0781 65.3281 41.0781 65.9375 41.6875C66.5469 42.2969 66.5469 43.2812 65.9375 43.8906L48.375 61.4531C48.0625 61.75 47.6719 61.9062 47.2656 61.9062Z" fill="#1652F0"/>
</svg>
